/* XPM */
static char *result[] = {
/* columns rows colors chars-per-pixel */
"64 64 219 2 ",
"   c #67786B",
".  c #BE3203",
"X  c #CC3E02",
"o  c #C24006",
"O  c #CB4203",
"+  c #D34601",
"@  c #D44B02",
"#  c #CB5008",
"$  c #D55202",
"%  c #DA5502",
"&  c #DC5B02",
"*  c #DB5D0A",
"=  c #D65913",
"-  c #E25B01",
";  c #DE6103",
":  c #DD630A",
">  c #DE690B",
",  c #DB6718",
"<  c #E36606",
"1  c #E16A03",
"2  c #E77707",
"3  c #EB6E17",
"4  c #E27616",
"5  c #DB6F23",
"6  c #E57928",
"7  c #3E8D2F",
"8  c #289939",
"9  c #2CA53B",
"0  c #39A237",
"q  c #4E8A2D",
"w  c #51912F",
"e  c #58962B",
"r  c #4E8C35",
"t  c #469A35",
"y  c #4D9C36",
"u  c #4B9C3C",
"i  c #559936",
"p  c #5B9C3D",
"a  c #629C2D",
"s  c #47A53B",
"d  c #59A336",
"f  c #54A43B",
"g  c #5CA33A",
"h  c #58B23D",
"j  c #69AA2C",
"k  c #63A434",
"l  c #6DA736",
"z  c #63A43C",
"x  c #65AC3C",
"c  c #6DAC3C",
"v  c #73AB37",
"b  c #72AB3A",
"n  c #65B33D",
"m  c #74B33C",
"M  c #7BB739",
"N  c #7CB43C",
"B  c #73C13F",
"V  c #7DC23F",
"C  c #2F9C42",
"Z  c #1FA245",
"A  c #1FAA40",
"S  c #27A646",
"D  c #3AAA43",
"F  c #2AB14B",
"G  c #37B34B",
"H  c #489F41",
"J  c #678E55",
"K  c #48AB44",
"L  c #56AA47",
"P  c #48B548",
"I  c #5BBA46",
"U  c #57B648",
"Y  c #52B750",
"T  c #63A847",
"R  c #6CAA44",
"E  c #75AC44",
"W  c #6DB343",
"Q  c #67B947",
"!  c #63BB4A",
"~  c #6DBA4B",
"^  c #73B342",
"/  c #75BC43",
"(  c #7BBA43",
")  c #7BB849",
"_  c #73AF51",
"`  c #738D62",
"'  c #6DC142",
"]  c #7BC241",
"[  c #79C444",
"{  c #79C050",
"}  c #80B738",
"|  c #82BC3C",
" . c #EA8207",
".. c #EF920A",
"X. c #E78519",
"o. c #ED971B",
"O. c #F09B15",
"+. c #F2A51D",
"@. c #E88925",
"#. c #E8982A",
"$. c #F19023",
"%. c #E88B37",
"&. c #E8963B",
"*. c #EEA528",
"=. c #F1A727",
"-. c #F6B928",
";. c #EDA63B",
":. c #F3B937",
">. c #86C63D",
",. c #89C639",
"<. c #8BC43E",
"1. c #8DCA3D",
"2. c #91C33D",
"3. c #92CA3D",
"4. c #98CA3A",
"5. c #FDD92C",
"6. c #FACA36",
"7. c #FBD13C",
"8. c #80AA49",
"9. c #83BD43",
"0. c #88BD44",
"q. c #81B649",
"w. c #85BB4C",
"e. c #8BBD4C",
"r. c #91BF49",
"t. c #8AA859",
"y. c #95A85B",
"u. c #86B753",
"i. c #97B958",
"p. c #889C63",
"a. c #89887A",
"s. c #8BAB63",
"d. c #8EA969",
"f. c #97B36B",
"g. c #DD994F",
"h. c #E08640",
"j. c #EB9746",
"k. c #E9A74A",
"l. c #EEB647",
"z. c #E3A55A",
"x. c #F2BD55",
"c. c #D7A660",
"v. c #D3BA6A",
"b. c #85C443",
"n. c #8CC541",
"m. c #87C944",
"M. c #8EC943",
"N. c #84C34B",
"B. c #8CC349",
"V. c #8DC84A",
"C. c #92C642",
"Z. c #93CA43",
"A. c #9BCB46",
"S. c #94C44A",
"D. c #9BC648",
"F. c #93CA4B",
"G. c #9DCB49",
"H. c #8DC755",
"J. c #9BC453",
"K. c #95CB51",
"L. c #9BCB52",
"P. c #98C559",
"I. c #9DCD5B",
"U. c #A0C84D",
"Y. c #A7C75C",
"T. c #A1CC5C",
"R. c #B4C55E",
"E. c #99C467",
"W. c #98C874",
"Q. c #A6CB63",
"!. c #ABCC63",
"~. c #B5CB67",
"^. c #A7D062",
"/. c #ABC57E",
"(. c #B9CB71",
"). c #B4D375",
"_. c #F7CA47",
"`. c #FCD647",
"'. c #F0CC57",
"]. c #FCDB57",
"[. c #ECEA57",
"{. c #FCE159",
"}. c #CCC86D",
"|. c #D6CA66",
" X c #C3C573",
".X c #FBD961",
"XX c #FEDC76",
"oX c #EDE56B",
"OX c #FDE66A",
"+X c #8F7F8E",
"@X c #957CAC",
"#X c #A277AF",
"$X c #898388",
"%X c #928F86",
"&X c #958B9B",
"*X c #97B883",
"=X c #9C89A6",
"-X c #A088B4",
";X c #9DCA87",
":X c #A9C286",
">X c #BDD886",
",X c #B5CB99",
"<X c #D0D98F",
"1X c #C6DE90",
"2X c #FAD691",
"3X c #F3E58D",
"4X c #CDDBAF",
"5X c #D6E7A9",
"6X c #D1E4B5",
"7X c #EDE3AE",
"8X c #F9E5A9",
"9X c #FEEBB4",
"0X c #D5DDCE",
"qX c #DEE6CC",
"wX c #F1ECD5",
"eX c #FDF5D8",
"rX c #F1ECEB",
"tX c #EDF2E8",
"yX c #F7F3E9",
/* pixels */
"G.G.U.U.G.G.U.G.G.G.G.G.G.G.G.G.G.G.G.G.G.G.U.G.G.G.U.G.G.G.G.G.G.G.[.4.A.G.G.G.G.G.G.U.G.G.U.G.G.G.G.G.G.G.G.G.G.G.4.G.^.^.^.;X",
"G.G.U.G.U.G.G.G.U.G.^.G.G.G.G.G.G.U.U.G.U.G.G.G.U.G.G.U.G.G.G.G.G.G.G.G.G.G.G.G.U.G.G.G.G.G.G.G.G.G.G.G.G.G.G.G.A.^.^.G.4.4.F.I.",
"G.G.G.G.G.U.G.G.G.G.G.G.R.G.G.G.G.G.G.G.G.U.G.G.G.U.G.G.^.G.G.G.G.G.G.G.G.G.G.G.G.G.L.G.U.G.G.U.G.G.G.G.G.G.G.^.A.G.G.G.A.A.A.A.",
"G.G.G.G.G.G.G.G.U.G.G.G.4.G.G.G.G.G.G.U.G.G.G.G.G.G.G.G.G.G.G.G.G.G.G.G.G.G.G.G.G.U.G.G.G.G.G.G.G.U.U.G.G.G.G.G.G.G.G.G.G.L.L.L.",
"G.G.G.G.G.G.G.G.G.G.G.G.G.G.G.G.G.G.G.L.G.G.G.G.U.G.G.G.G.G.G.G.G.G.G.G.G.G.G.G.G.G.G.G.U.U.A.A.U.^.G.G.G.G.G.G.G.L.L.L.G.G.G.L.",
"G.G.G.G.G.G.G.G.G.G.G.G.G.G.G.G.G.G.G.G.G.G.G.G.G.G.G.G.G.G.G.G.G.G.G.A.G.G.^.G.G.G.G.G.G.G.G.G.G.4.G.G.G.G.G.G.G.G.G.L.G.G.G.A.",
"A.G.U.U.G.G.G.G.G.G.G.G.G.G.G.G.A.G.G.G.G.G.G.G.G.G.G.G.G.G.G.G.G.G.G.G.G.A.G.G.G.G.G.G.G.G.G.G.G.G.G.G.G.G.G.G.G.G.G.A.G.G.G.G.",
"4.4.G.U.U.G.G.G.G.G.G.G.G.G.G.G.G.G.A.A.G.G.G.D.G.G.G.G.G.G.G.G.G.G.G.G.G.G.A.A.A.A.A.A.A.A.G.G.G.G.G.G.G.G.G.G.A.A.A.A.A.G.G.A.",
"A.4.4.A.A.A.A.A.G.G.A.G.G.G.G.A.D.G.F.G.G.D.G.A.F.G.G.G.A.A.G.A.A.G.G.G.G.G.G.G.G.A.G.A.A.G.F.D.A.A.A.A.L.A.A.A.G.G.G.G.A.A.G.A.",
"A.G.L.G.Z.A.G.A.G.G.A.A.A.G.G.A.A.G.A.A.G.A.A.G.A.G.G.A.A.G.A.A.G.A.A.G.G.A.F.A.A.G.A.A.G.A.A.A.A.K.A.G.A.A.A.A.G.A.G.G.A.A.A.K.",
"I.).1X1X).L.A.F.G.G.G.A.G.A.A.G.A.G.A.A.A.G.D.A.G.A.G.A.A.G.A.G.A.G.A.A.A.A.A.A.A.A.A.G.G.G.A.A.A.A.G.G.A.A.A.A.A.A.G.A.A.K.A.A.",
"T.).5X5X>XL.A.A.4.G.G.A.A.A.A.A.G.A.A.A.G.A.F.A.G.A.F.A.A.A.A.G.A.A.A.G.A.A.A.A.A.A.A.F.A.G.A.A.G.A.G.A.A.A.F.A.A.G.A.A.A.A.A.A.",
"L.P.P.P.I.F.A.A.Z.A.A.Z.A.A.A.A.Z.A.F.A.A.D.A.D.F.F.A.Z.Z.A.Z.Z.A.A.A.Z.A.A.Z.A.F.A.A.Z.A.Z.A.Z.F.A.Z.A.Z.A.Z.A.A.A.A.A.A.A.A.3.",
"A.A.G.D.Z.Z.Z.A.A.Z.Z.A.4.A.3.A.A.Z.Z.Z.Z.4.Z.4.Z.Z.3.A.A.Z.Z.A.3.A.3.A.Z.Z.A.Z.Z.Z.Z.A.Z.A.Z.A.A.Z.Z.Z.A.3.Z.A.3.F.3.A.A.Z.F.3.",
"A.Z.F.A.3.A.A.Z.3.Z.Z.Z.A.3.A.Z.3.Z.Z.3.Z.Z.Z.A.Z.Z.Z.Z.Z.Z.Z.Z.Z.Z.Z.Z.Z.Z.Z.Z.Z.Z.F.3.Z.3.Z.Z.Z.Z.Z.Z.Z.A.Z.Z.3.F.Z.Z.Z.Z.A.Z.",
"Z.A.F.Z.A.Z.Z.Z.Z.A.A.Z.Z.Z.Z.A.A.Z.A.Z.A.F.F.Z.Z.4.Z.A.A.Z.A.Z.A.Z.A.Z.Z.A.Z.A.A.Z.A.Z.A.Z.A.Z.Z.Z.Z.A.Z.Z.A.A.Z.Z.Z.F.Z.A.3.A.",
"A.F.A.Z.F.Z.A.Z.Z.Z.A.A.Z.Z.Z.A.Z.Z.Z.Z.A.F.B.} Z.Z.Z.Z.A.Z.Z.A.Z.A.A.Z.A.Z.Z.Z.A.Z.Z.Z.Z.A.A.Z.A.A.Z.Z.A.Z.Z.Z.A.Z.Z.A.Z.Z.A.Z.",
"3.4.Z.Z.F.A.A.Z.A.Z.Z.Z.Z.A.Z.Z.Z.A.F.Z.F.H.l v F.Z.A.Z.A.Z.Z.Z.Z.Z.Z.Z.Z.Z.A.A.Z.Z.A.F.F.Z.Z.A.Z.Z.Z.A.Z.Z.A.Z.A.Z.Z.Z.A.Z.A.Z.",
"3.3.3.Z.Z.Z.Z.Z.Z.Z.Z.Z.Z.Z.Z.Z.Z.Z.Z.>.H.) e m F.Z.Z.Z.Z.F.Z.Z.Z.Z.Z.Z.Z.Z.Z.Z.Z.Z.Z.Z.Z.F.A.3.Z.Z.A.A.3.Z.F.Z.Z.Z.Z.3.M.Z.Z.Z.",
"Z.Z.Z.Z.Z.Z.Z.Z.M.Z.Z.Z.Z.Z.Z.Z.Z.Z.F.c R W e m Z.Z.M.Z.Z.Z.Z.3.Z.Z.Z.Z.Z.Z.Z.Z.Z.3.3.1.Z.D.D.A.4.1.Z.Z.Z.Z.3.Z.Z.Z.Z.Z.1.Z.Z.Z.",
"Z.Z.Z.Z.Z.Z.M.Z.Z.M.Z.M.Z.Z.Z.3.Z.M.F.) e k m M Z.3.Z.Z.M.Z.Z.Z.Z.Z.Z.Z.M.Z.Z.Z.F.3.3.D.i.y.y.i.Z.3.1.Z.Z.Z.3.M.Z.Z.Z.Z.Z.Z.Z.Z.",
"M.M.Z.M.M.Z.Z.Z.Z.Z.Z.Z.Z.M.Z.M.Z.Z.Z.9.k n N.b.A.3.Z.Z.Z.Z.1.Z.Z.1.Z.Z.Z.Z.M.M.3.Z.P.y.a.=X-X$Xf.K.1.3.A.Z.Z.Z.M.Z.M.Z.F.Z.A.3.",
"Z.Z.Z.Z.M.Z.M.Z.Z.M.M.Z.M.Z.Z.Z.Z.M.V.b.( b.V.V.Z.Z.Z.3.F.I.Y.~.!.T.I.M.M.Z.M.3.3.3.J.p.$X@X@X$Xs.K.1.3.4.Z.Z.Z.Z.Z.Z.Z.F.3.3.Z.",
"3.M.Z.M.3.Z.M.Z.Z.1.Z.Z.M.Z.Z.Z.M.Z.Z.Z.Z.M.Z.Z.M.3.F.^.|.'._.:.;.;.'.}.^.Z.Z.3.3.3.F.i.y.p.p.t.F.3.1.M.Z.Z.Z.Z.M.M.Z.Z.F.3.1.Z.",
"M.3.M.M.n.Z.M.Z.1.Z.<.Z.Z.n.Z.n.Z.3.Z.3.3.2.C.Z.1.L.}.'.`.`.-., X o # 4 k.(.F.3.Z.1.1.Z.C.C.S.C.C.C.D.Z.3.3.3.M.M.M.3.M.F.1.1.V.",
"Z.M.3.Z.Z.M.Z.<.C.M.Z.M.M.C.M.3.M.M.n.3.C.3.C.M.K.|.`.XX9X9XXX4 X O . . $ %. XA.C.Z.M.M.M.M.M.M.V.V.C.Z.3.M.1.Z.Z.Z.M.1.3.1.1.V.",
"M.Z.M.M.M.C.Z.Z.M.Z.n.Z.M.M.M.Z.C.M.C.Z.M.Z.Z.F.}.`.].9XeXeX8X6 @ ; ; @ X & %.(.Z.n.Z.n.M.Z.n.1.3.S.y.i.| | C.n.m.m.Z.1.3.1.M.V.",
"M.M.M.Z.M.Z.n.n.Z.n.Z.M.Z.n.Z.n.M.C.M.M.Z.n.Z.~._.5..X9XeXeX2X5 ; .. .1 % % & c.I.M.M.Z.C.M.Z.S.y.%X&X%XJ 8.S.Z.Z.Z.M.Z.3.3.M.M.",
"Z.M.Z.M.Z.n.Z.M.n.Z.n.Z.M.M.M.Z.Z.M.Z.M.M.C.F.|.-.#.`.3X8X2Xk.3 #.-.O.2 & & $ , (.n.C.M.Z.M.M.s.+X#X-X=X  ` G.4.3.Z.M.n.3.3.Z.Z.",
"M.Z.n.Z.M.Z.M.Z.n.M.Z.M.M.C.C.M.C.M.M.C.C.M.T.l.X.> @.@.%.4 6 l.].6.X.4 & & $ @ c.F.C.C.M.1.1.t.+X@X$X`   t.J.3.3.Z.M.Z.Z.3.C.1.",
"M.C.M.M.n.Z.n.<.Z.C.n.Z.n.Z.M.Z.M.C.M.C.M.M.Y.=.> *.X.: = 5 x.OX].&.= 4 ; % % + g.T.1.Z.M.M.1.e.y.` J r E e.S.C.<.n.M.1.Z.n.C.<.",
"n.n.<.C.C.n.n.Z.n.n.C.n.C.n.n.n.M.n.n.n.n.n.R.$.O : 2 o.#.;..XoX{.:.X.X.1 @ & $ &.T.<.n.<.M.M.1.D.) H u N.M.1.<.M.M.<.1.<.M.n.M.",
"n.Z.<.C.M.n.n.C.C.V.B.M.M.n.C.n.Z.n.n.<.n.n.R.X.X X 1 O.-.6.`.`.`.7.6...> @ & ; &.T.<.n.n.M.m.n.C.I 8 T V.m.<.<.M.n.n.3.n.1.n.n.",
"n.<.n.n.n.b } C.C.B.n.M.n.<.n.n.<.<.M.M.M.3.!.%.X O ;  .o.*.6.6._.6.*.+. .: ; 1 k.I.1.n.n.1.m.M.N.D 8 E m.1.M.<.M.n.<.M.n.n.Z.n.",
"n.1.n.n.V.b a e.n.<.M.m.C.<.n.n.n.M.C.n.n.<.T.j.$ X & : = , =.6.:.4 , k.x.$.1 2 v.G.1.n.n.M.1.1.~ 9 C u.<.1.n.M.n.n.M.n.n.M.n.n.",
"n.n.n.<.n.u.w m M.3.n.n.M.<.<.n.<.<.<.M.<.<.H.v.< O & ; = , #.=.o., , '.8X;.1 X.(.n.n.n.n.<.2.>.K Z H u.2.,.n.n.n.n.<.<.<.<.n.<.",
"<.<.<.n.n.e.i w 9.<.3.n.n.<.<.<.<.<.n.<.n.>.<.!.j.& % & * : < < : * : %.k.X.< z.P.<.<.n.<.<.,./ 9 Z u e.,.,.<.<.<.<.<.n.<.<.n.<.",
"<.<.<.<.<.S.c 7 R S.2.b.b.<.<.<.<.<.<.<.<.<.<.n. X6 % % & & $ @ + @ % < 1 - &.(.<.<.<.<.<.n.n.n A S T n.,.<.<.M.n.<.<.<.<.<.<.<.",
"<.<.<.<.<.<.^ t i e.2.<.n.<.<.<.<.<.<.n.<.<.<.<.K.v.6 - % & & % & & - & - j. XS.0.<.<.<.n.<.N.s A 9 b S.<.<.<.<.<.<.n.<.<.<.<.<.",
"n.n.n.n.<.b.( r C q.<.>.b.<.n.<.n.<.<.<.n.<.<.<.<.S. Xj.3 - - & & - - 3 z.(.M.n.n.<.<.b.M.<./ 0 F 9 W B.b.<.,.<.<.0.n.n.n.<.<.n.",
"<.n.<.<.,.,.0.s 8 g <.M.n.<.<.<.<.<.<.<.<.<.<.<.<.<.n.Q.v.z.%.6 6 h.c. XP.<.<.N ( e.<.<.n.n.x D F 0 m C.n.>.<.<.n.n.0.n.n.<.<.<.",
"<.<.<.<.<.<.n.K Z t } 2.0.<.<.<.<.<.<.<.n.<.n.<.<.n.<.<.n.F.Y.Q.Q.Q.H.n.<.<.M.N e ( <.,.<.b.f D F 0 ^ r.<.>.<.<.<.n.n.n.<.n.<.<.",
"<.,.<.,.n.C.n.h Z 8 m r.n.<.<.<.<.<.<.n.<.n.| n.<.<.n.<.b.<.>.<.<.<.<.<.<.<.M.) e i b.,.C.q.s G G s ( 2.<.<.<.n.n.n.n.>.n.<.n.<.",
"<.<.<.v N B.b.h Z 8 d B.n.<.n.<.n.<.<.<.<.<.<.<.<.<.<.<.M.<.<.<.<.<.<.<.<.<.n.w.p y b <.M.^ s G G t N <.<.<.n.n.<.<.<.<.| <.<.<.",
"<.<.n.v e q.n.x S S y 9.n.<.n.<.<.<.<.<.<.n.<.<.<.<.n.<.n.<.<.<.<.<.<.<.<.<.<.9.i L f 0.e.z s G P y ^ M.<.<.M.n.<.<.<.<.<.<.<.<.",
"<.n.B.) q k N.n S F t ( n.<.<.<.<.<.n.C.<.<.<.<.<.<.<.<.<.<.<.n.<.<.n.n.<.n.M.0.p P u b e.d h P Y i ^ b.| j 9.<.<.2.<.<.n.n.<.<.",
"M.<.<.w.t r ) R D G 0 m n.0.<.<.<.n.<.| <.<.<.n.n.<.<.<.<.<.<.<.<.<.<.| <.<.n.0.p U L z q.f U P U f E N.d a b.<.<.| <.2.<.M.n.<.",
"<.<.<.) L u T x s G K l n.<.n.<.<.<.<.<.n.<.<.<.<.n.| n.<.<.<.<.<.n.<.<.<.<.<.0.g U Y p R f I I I f R R e j >.n.<.3.,.>.>.<.<.<.",
"<.<.2.b.L L u g L Y L d b.n.n.<.<.n.| <.<.n.<.<.<.n.<.<.C.<.<.<.<.<.n.<.<.<.n.9.g I ! p p L I I I L i g L _ E.u.P.n.1.b.<.,.<.n.",
"b.<.<.9.z Y y r T ! Q g b.n.>.<.<.<.n.<.<.<.n.<.<.<.| <.| <.<.n.<.<.<.<.<.n.<.( g Q Q L r ! ~ ' ! Q w L T *X5X<X5X6X,Xf.S.<.<.n.",
"b.<.2.9.z ~ g q R ~ ~ z 9.<.0.<.<.<.<.<.<.n.<.<.<.<.C.<.n.<.<.<.n.<.<.<.n.<.M.) n B / L r ~ ~ Q Q ~ n ~ Q :X3X[..X7XwXqX/.S.<.<.",
"b.n.2.| m { b w / [ N.c } <.<.<.n.<.<.<.<.<.<.<.<.<.n.<.<.<.<.n.<.<.<.<.<.n.<.^ n B ' R i / ' B ' ' ( ( n /.3X[.oX7XyXtX4Xi.<.,.",
"M.n.| } 9.e.N e b.b.b.N M <.n.<.<.n.<.<.<.<.<.<.<.n.<.<.| C.<.<.n.n.<.<.<.n.n.b ( V B m k ] [ [ [ V M ] / :XyXwXyXrXrXqX6XW.<.,.",
"<.<.n.>.b.n.9.N b.0.n.M M <.n.n.n.n.n.<.<.<.n.<.<.<.<.n.<.<.<.<.0.<.<.,.<.n.q.v b.b.>.] M b.b.b.V m.b.b.] f.4X0XyXtX,Xs.u.w.n.,.",
"<.n.<.n.n.n.n.n.n.n.<.} M n.<.n.0.<.n.<.<.n.| n.<.<.<.<.n.<.<.<.n.n.,.,.<.0.N 9.n.b.b.b.b.b.m.n.M.b.M.b.m.) _ d.f.f.u.w.w.B.<.<.",
"<.<.<.<.<.<.<.<.n.0.3.| | n.n.n.n.n.n.<.<.<.n.<.<.n.<.<.<.<.<.n.<.n.<.<.,.M N 0.n.n.n.M.n.n.M.n.m.M.<.n.n.b.v 0.q.9.b.b.M.0.<.,.",
"<.<.<.n.<.,.<.,.<.<.<.<.<.<.n.<.0.<.n.<.<.<.<.<.<.<.| n.<.n.<.<.n.<.<.<.<.} n.n.<.<.<.n.n.<.<.<.n.n.<.n.<.<.| | <.<.,.n.n.<.<.<.",
"n.<.<.<.n.<.<.<.,.<.<.<.<.<.n.n.n.<.n.<.<.<.<.<.<.<.C.<.<.<.<.n.<.<.C.| <.<.| <.<.<.<.<.<.<.<.<.<.3.<.<.<.r.C.<.n.C.e.C.<.<.,.<.",
"<.<.<.<.<.<.<.<.<.<.<.n.n.n.n.n.n.n.n.<.<.<.<.n.<.n.<.<.<.<.<.<.n.<.<.<.<.<.<.,.<.>.>.<.<.,.1.>.<.<.<.,.<.,.<.<.n.n.| <.<.<.<.<.",
"| <.<.<.<.n.n.C.<.<.n.<.n.| n.<.n.<.n.<.n.<.<.<.<.<.<.<.n.<.<.<.<.<.n.<.<.<.<.<.>.<.<.<.<.<.>.<.<.>.<.,.<.<.<.<.n.<.3.<.<.,.<.<.",
"C.n.<.<.<.<.<.| <.<.n.n.<.n.<.<.| C.<.n.<.<.<.n.<.n.<.<.<.<.n.<.<.<.<.<.<.<.<.<.<.<.<.n.<.<.<.<.n.n.<.<.n.<.<.<.<.<.<.<.<.<.,.,.",
"<.<.<.<.<.<.n.<.n.<.<.| <.<.<.<.<.<.<.<.n.<.<.<.<.<.<.<.<.<.| C.<.n.<.<.<.<.<.<.n.n.<.<.<.<.<.<.n.<.<.<.<.<.<.<.<.<.<.<.<.,.,.<.",
"n.<.<.n.<.n.<.n.<.<.<.<.<.<.<.n.<.n.<.n.<.<.<.<.<.<.<.n.<.<.n.<.<.<.n.<.<.<.<.<.<.| n.<.<.<.n.n.<.<.,.>.,.<.<.<.<.<.<.<.2.<.n.n.",
"<.<.<.<.<.<.<.<.<.<.<.<.n.<.<.<.<.<.<.<.<.<.n.| n.<.<.<.n.<.<.<.<.n.<.<.<.n.<.<.<.<.<.<.<.n.M.n.,.<.m N b.<.<.<.<.<.<.<.2.e.B.n."
};
