/* XPM */
static char *_16949ea3f674a98b5dd03e72a94a8e3Hj4OLreAYlkahdVz[] = {
/* columns rows colors chars-per-pixel */
"64 64 240 2 ",
"   c #5B4806",
".  c #5F4E14",
"X  c #644E09",
"o  c #6A5308",
"O  c #6A530B",
"+  c #71590C",
"@  c #675616",
"#  c #765C11",
"$  c #7D6312",
"%  c #776619",
"&  c #73781D",
"*  c #6C5E28",
"=  c #7D6A25",
"-  c #796D38",
";  c #3F3171",
":  c #58395C",
">  c #56376A",
",  c #603969",
"<  c #584C52",
"1  c #644D5A",
"2  c #7D754B",
"3  c #6E7151",
"4  c #5A4B69",
"5  c #67466A",
"6  c #685666",
"7  c #715D68",
"8  c #6C4772",
"9  c #704778",
"0  c #74497C",
"q  c #785878",
"w  c #78676D",
"e  c #74716A",
"r  c #826614",
"t  c #866B17",
"y  c #8B6C17",
"u  c #8A731C",
"i  c #94761C",
"p  c #98781D",
"a  c #9B7B1D",
"s  c #A07F1F",
"d  c #846E23",
"f  c #8E7724",
"g  c #947B26",
"h  c #9B7C21",
"j  c #83753C",
"k  c #897938",
"l  c #8A7C43",
"z  c #897658",
"x  c #8F7479",
"c  c #3E8D2F",
"v  c #289939",
"b  c #3A973A",
"n  c #2CA53B",
"m  c #39A237",
"M  c #59952D",
"N  c #4E8D31",
"B  c #499B37",
"V  c #579A38",
"C  c #788628",
"Z  c #709538",
"A  c #47A53B",
"S  c #58A43A",
"D  c #58B23D",
"F  c #65AF36",
"G  c #66A83B",
"H  c #75A83A",
"J  c #78B53A",
"K  c #7CB43B",
"L  c #7AC13F",
"P  c #2F9C42",
"I  c #1FA344",
"U  c #27A646",
"Y  c #3AAA43",
"T  c #2AB14B",
"R  c #37B34B",
"E  c #489F41",
"W  c #74904D",
"Q  c #7B8758",
"!  c #47AC44",
"~  c #58A946",
"^  c #48B548",
"/  c #58B847",
"(  c #52B750",
")  c #67A945",
"_  c #78A945",
"`  c #68B948",
"'  c #73B342",
"]  c #75BC42",
"[  c #7ABA43",
"{  c #7BB849",
"}  c #6EB053",
"|  c #738D62",
" . c #6DC142",
".. c #7AC342",
"X. c #8A8425",
"o. c #898828",
"O. c #998529",
"+. c #88853B",
"@. c #9B8839",
"#. c #909432",
"$. c #A48422",
"%. c #A7892A",
"&. c #B1902E",
"*. c #A79636",
"=. c #B69735",
"-. c #87A938",
";. c #98A73C",
":. c #81B737",
">. c #84B33B",
",. c #8BB43B",
"<. c #83BB3C",
"1. c #8ABB3D",
"2. c #93B53D",
"3. c #A7A13A",
"4. c #86C53C",
"5. c #89C639",
"6. c #8BC43E",
"7. c #8DC93D",
"8. c #91C33D",
"9. c #92CA3D",
"0. c #99CA3B",
"q. c #8B8643",
"w. c #938647",
"e. c #958A4A",
"r. c #9B8C4D",
"t. c #98954B",
"y. c #8F8E53",
"u. c #998B53",
"i. c #9D9353",
"p. c #A68F4A",
"a. c #A2984D",
"s. c #A49655",
"d. c #A79856",
"f. c #A99B55",
"g. c #A5975A",
"h. c #AB9D59",
"j. c #86AB45",
"k. c #97A949",
"l. c #8BB342",
"z. c #84BC42",
"x. c #8BBC42",
"c. c #85B748",
"v. c #8CBD4B",
"b. c #95B747",
"n. c #87AB57",
"m. c #97A759",
"M. c #86B753",
"N. c #95BA59",
"B. c #A2B046",
"V. c #ACA359",
"C. c #B3A45B",
"Z. c #B6A95D",
"A. c #BAB65E",
"S. c #868368",
"D. c #948C68",
"F. c #8A9967",
"G. c #919571",
"H. c #A69B67",
"J. c #91AE67",
"K. c #96B969",
"L. c #ADA266",
"P. c #B8AA65",
"I. c #ABA478",
"U. c #B2B673",
"Y. c #C1B35D",
"T. c #C7BA66",
"R. c #C6BB77",
"E. c #85C442",
"W. c #8CC542",
"Q. c #8EC843",
"!. c #87C648",
"~. c #8CC249",
"^. c #92C542",
"/. c #98C647",
"(. c #93C943",
"). c #9BCB46",
"_. c #93C44A",
"`. c #9BC64B",
"'. c #93C94A",
"]. c #9DCB49",
"[. c #8DC755",
"{. c #97C556",
"}. c #9BC453",
"|. c #A1C554",
" X c #9AC365",
".X c #98C874",
"XX c #A4C364",
"oX c #AAC679",
"OX c #B5C67C",
"+X c #B4D375",
"@X c #ECEA57",
"#X c #D1C56F",
"$X c #D4C778",
"%X c #DED07B",
"&X c #E4D575",
"*X c #EDE56B",
"=X c #4C378D",
"-X c #5A4793",
";X c #7A5586",
":X c #756B91",
">X c #5A42A1",
",X c #6C57AA",
"<X c #7669A1",
"1X c #835788",
"2X c #8D668C",
"3X c #8D7D8C",
"4X c #A0739E",
"5X c #8F76AC",
"6X c #A575AC",
"7X c #968D8D",
"8X c #A39891",
"9X c #99B883",
"0X c #B6AF8B",
"qX c #968AAB",
"wX c #A098A7",
"eX c #B4ACAE",
"rX c #C5BD92",
"tX c #9DCA87",
"yX c #BACA86",
"uX c #B3CB8B",
"iX c #C7C688",
"pX c #D4C988",
"aX c #C6C596",
"sX c #D3D693",
"dX c #E5D787",
"fX c #E5DB98",
"gX c #EBE68D",
"hX c #C8D2AB",
"jX c #D6D6AA",
"kX c #D8DAB5",
"lX c #D4E6AE",
"zX c #EFE4AB",
"xX c #E9E4B6",
"cX c #B7A8C5",
"vX c #C2BDD4",
"bX c #CDCECC",
"nX c #DBD5D2",
"mX c #DEE6CC",
"MX c #F3F0D8",
"NX c #F2F0E9",
/* pixels */
"].].].].].].].].].].].].].].].@X].].].].].].].].].].].].].].].].].].].].].].].].].].].].].].].].].].].].].].].].].].(.'.[..X.X+X",
"].].].].|.].].].].].].].].].).).].}.].].].].].].].].].].].].].].].].].].].].].|.}.].].].].].].].].].].].].].].].].|.+X].].).'.'.",
"].|.].].].].].].].|.].].].].].].].].].].].].].].].].].|.].].|.tX|.].].].].].].].].].].].|.].].].].].].].].].].].].].].].].].).).",
"].].].].].].].].].].].].].].].].].].].].].].|.].].].].].[.F.bXcX5XF.{.].].].].].].].].].].].].].].].].].].].].].].].].].].].].].",
"].].].].].].].].].].].].].].].].].].].].].].].].].].].].L.,X,X<X>X-XF.].].].].].].].].].].].).).].@X].|.].].].].].[.].].].].].].",
"].].].].].].].].].].].].].].].].].].].].].].].].].].].|.H.=X=X5X<X> G.}.].].].].].].].].].].].].].).].].].].].].].].].].].].].].",
").].].|.].].].].].].].].].].].].].].].].].].].].].].].|.T.6 > qXcX4 R.XX].].].].].].].].].].].).].].].].].].].].].].].].].].].].",
"0.0.].].].].].].].].].].].].].].'.].).].].].).].].].].B.pXV.< :XeXL.%XV.].].].].).].).].].]._.].).).).).].].].].].].].'.].].].].",
"9.0.).9.).).].).].].).].).).].).].'.].].).].).].).)./.C.kXpXh.l L.%XpXt.x.].].].).].).].]./.].).].).].).].).).].].].].].).).).'.",
").].].).).'.].).].].].].].].].].].).].].).'./.].].)./.OXrXhX0Xu.P.aXiXU./.].).].]./.].).].).).].].].).'.'.].].).].].].].].).].].",
"].+XsXsX+X].).).].).).).].].).].].].).).]./.].]./.)././.U.eX2X2X2X0X X).).].].).'.]./.].].].].).).].].].).).].].].].].].).].).).",
"|.uXlXlXyX}.).).).).).)./.)./.).).).).).).).).].].].).)./.I.6X4X4XI._./.].(./.).).).)./.).).).).).'.).).].).).).].].'.'.).].).).",
"].[. X{.{.]./.).(.).).(./.(.).).(.).(.).).).).).,.C & C +.y.z x z i.q.C & & -.(./.(.).).(.).).(.(.(.).'.).9.(.(.).(.).(.'.).(.).",
"].].].].'.).(.(.).(.(.).(.(.(.(.(.).(.(.(.(.0.2.% o t q.l - w.e.w.j j l d + % -.).(.(.(.(.(.(.).(.).(.).).).(.).(.).(.).(.(.(.(.",
").).'.).0.(.).(.9.(.(.(.).(.(.(.9.(.(.(.9.(./.o.r u L.f.g.P.%XiXpXP.d.d.P.f r o.(.(.(.(.(.9.).(.(.).(.(.(.(.(.(.).9.(.(.(.(.(.(.",
"(.(.).'.).(.(.(.(.).).(.(.(.(.).).(.).(.).'._.X.a p.fX$XpXkXeXqXnXxXpX$XfXg.h g 9./.(.).).(.(.(.(.(.(.).(.).(.).(.(.(.).(.).(.).",
"'.).).'.'.(.).(.(.(.(.(.).(.(.(.).(.(.).'.'.~.X.y % I.rX0X:X> =XvXbX8XrX0X% t g 1.).(.'.(./.(.(.).).(.(.).(.(.(.).(.(.).(.(.).(.",
"(.9.7.).'.).(.).(./.).(.).(.(./.).(.(./.'.[.Z t + = g.g.d.-X=X-XvXcXi.d.h.k + y -.(.).(.(.(.)./.(.(.(.).(.(.).(.(.).).(.(.).(.).",
"9.9.9.(.).Q.7.).(.(.(.(.(.(.(./.(.(.(.<.[.{ C y o = V.Z.C.7X,X-XcXwXh.C.L.j o y #.0.(.(.'.'.^.(.9.).(.(.(.(.(.(.(.(.(.(.(.(.Q.(.",
"(.(.9.).Q.).Q.Q.(.(.(.Q.(.(.M.^.(.(.'.G ) ) o.a $ $ a.iXd.g.8XwX7Xg.s.R.L.t $ i *.,.7.9.(./.0.0.E.7.(.(.9.(.(.(.(.(.(.9.Q.Q.(.(.",
"(.(.(.(.Q.(.(.(.Q.(.(.^.(.(.7Xm.(.(.'.j.q.+.g =.a X.,.iXY.s.e.- w.d.Z.$Xx.X.a &.O.+.t.B.N.m.L.m.e 5.7.9.(.(.(.Q.(.Q.(.(.Q.(.(.(.",
"(.(.(.(.Q.(.(.(.(.(.Q.Z j.9.F.8X~._.B.C.s.w.= %.%.-.9.oXdXP.s.l i.C.dXoXQ.,.O.%.d w.e.Z.H.7XqX:Xe '.c.W 2.).(.Q.(.Q.(.(.).(.9.9.",
"7.'.(.(.(.(.(.(.Q.(.7.W 3 j.G.6XD.t.f.d.s.r.@.f 2.(.].K.fXT.s.e.s.T.fXoX7.(.1.X.@.2 Q D.G.D.x 9 e n.3 3 (.(.(.(.(.Q.(.(.'.(.9.).",
"(.7.7.(.Q.Q.(.7.(.^.9.c.1 q q 0 : e.f.f.C.P.V.l.(.(.8.@.p.T.s.s.d.A.@.@.^.(.(.2.a.u.y.D.D.e.1 , , 1 5 j.0.(.(.(.(.(.Q.(.'.9.7.(.",
"(.Q.Q.Q.7.^.(.9.Q.Q.9.Q.y.;X8 > 1X0XpXpXiXOXb.Q.Q.7.2.$.O +.h.g.d.k X s b.Q.^.7.b.U.yXaXpXrX1X5 : 8 S.^.9.7.7.(.Q.Q.Q.(.'.7.7.'.",
"7.7.Q.(.Q.(.Q.Q.^.Q.Q.^._.W e w F.N.XX|._.W.^.(.Q.Q.2.h O . e.s.u.@ X a 3.x.Q.^.(.~.~.{.}.N.F.w 6 Q x.8.9.(.7.Q.Q.Q.7.7.7.7.Q.!.",
"7.'.Q.(.Q.Q.Q.Q.^.Q.^.Q.Q.Q.x.x.Q.Q.Q.(.Q.(.(.Q.^.Q.;.h r X @ * @ . r a @.A.XX_.^.Q.Q.(.(.Q.9.1.W./.M.N.1.<.'.7.Q.'.Q.7.9.7.Q.Q.",
"Q.Q.Q.Q.^.Q.(.(.Q.Q.(.Q.(.Q.Q.(.(.Q.(.Q.^.Q.Q.Q.Q.^.B.$.s y X   X t a $.p.s.%XsX{.7.Q.~.(.Q.Q._.m.G.qX7XW j.'.(.(.(.Q.Q.9.7.Q.(.",
"Q.Q.Q.(.Q.Q.Q.Q.(.Q.Q.^.Q.Q.^.Q.Q.Q.Q.Q.^.Q.Q.^.^.W.X.# $.$.y y y s $.$ t l a.dXaX[.(.Q.Q.Q.Q.J.3X6XcXqXe | [.(.9.^.Q.Q.9.9.(.9.",
"Q.).Q.Q.Q.(.(.Q.^.Q.^.Q.Q.^.Q.^.Q.^.(.Q.Q.(.^.Q.Q.,.+ X $.%.$.a $.&.$.O O q.j f.dXjX{.Q.Q.Q.7.n.3X6X3X3 3 n.{.(.9.Q.Q.^.(.(.(.(.",
"Q.Q.Q.Q.Q.Q.Q.Q.Q.^.Q.^.Q.Q.^.Q.Q.(.Q.Q.Q.Q.Q.^.Q.-.X X a $.&.=.=.%.s O X k i.l A.zXhX~.Q.Q.7.~.m.| | c _ v.^.7.9.~.^.7.Q.Q.7.Q.",
"Q.Q.Q.Q.Q.7.Q.(.Q.W.W.Q.Q.Q.W.Q.x.l.j.-.1.Q.W.Q.Q.o.X o i $.a #.h $.p + X f s.s.w.#XxXoXW.7.W.(./.{ Y b !.Q.Q.7.Q.~.W.5.7.W.W.Q.",
"W.7.W.7.7.Q.~.^.^.~.!.7.Q.^.W.l.-.l.x.1.1.W.W.W.7.o.$ $ p $.i C i $.p $ # f a.g.e.V.dXkX'.Q.E.Q.~./ v ) !.Q.7.Q.W.!.W.7.6.Q.W.Q.",
"Q.Q.W.W.E.H <.(.^.Q.~.Q.6.x.l.l.W.Q.Q.7.Q.W.Q.7.1.X.y y y i i C i a u y y p r.s.s.r.#XzXoXQ.Q.Q.!.Y v _ !.4.W.W.Q.7.Q.6.W.^.Q.6.",
"W.Q.W.Q.~.H M ~.Q.7.Q.!.W.k.l.W.W.~.Q.W.Q.Q.Q.W.x.O.u y $ y %.X.O.y r y t g q.w.e.s.T.fXhXW.5.7.` n P M.9.7.W.W.Q.Q.W.Q.6.W.W.6.",
"W.6.W.Q.Q.c.N J W.8.8.~.b.b.W.W.W.7.W.6.6.6.W.6.x.*.t $ + $ &.X.=.y O $ r %.-.i.s.d.C.&XlXz.6.E.! U P v.8.5.W.W.6.6.6.W.W.Q.6.W.",
"6.6.6.6.W.v.V N E.8.9.x.k.x.7.6.6.6.W.6.W.6.6.W.1.O.g y   $ &.f &.t   $ d s l.t.d.s.h.&XkX[.4...Y I E ~.5.5.W.6.6.6.W.6.6.6.6.W.",
"6.6.6.W.6.~.G N ) _.8.b.k.4.W.6.6.6.6.6.6.6.6.6.1.g f y   y &.O.=.t   $ h f ,.k.d.d.C.&XzXN.W.F I U G ~.7.8.6.6.W.6.6.6.6.6.6.6.",
"6.6.6.6.6.6.} c E b.6.k.j.7.6.W.7.W.6.W.6.6.6.6.Q.o.r r + p =.@.=.h O r r X.4.b.f.d.Z.&XxX XE.A I n H ~.E.4.6.6.6.6.W.6.6.6.6.6.",
"W.W.W.x.7.4.[ B B { 8.k.j.6.6.7.W.1.6.6.W.6.6.W.6.1.X.%.O.=.=.;.*.&.h $.O.-.4.k.f.s.A.%XjXN.' m T n F '.E.7.7.6.W.W.W.x.W.6.6.W.",
"6.W.6.6.5.5.x.A v G 1.V.z.Q.1.W.4.W.1.W.7.6.6.6.W.6.>.= %.=.*.1.3.=.%.d -.1.W.k.s.s.A.&XjXN.D Y T m ' W.E.7.4.6.6.W.x.W.W.6.W.4.",
"6.6.6.5.6.6.~.! I c K U.j.7.W.4.6.6.6.6.E.6.6.W.6.6.>.t p =.B.E.b.=.p t :.7.1.V.d.s.T.dXhXc.S R R m ' ^.6.6.6.6.W.x.W.W.W.6.6.W.",
"5.4.4.6.W.W.W.D I v J U.k.E.6.W.1.W.6.6.W.6.6.6.6.7.<.d y %.;.7.k.%.y t -.5.b.h.d.d.#XfXuX[ A R R m [ 2.8.4.W.W.E.W.W.4.6.6.6.6.",
"6.7.6.H K ~.E.D I n S K.P.l.7.6.W.7.6.W.6.7.x.6.6.Q.-.r + # *.,.*.# O % -.b.C.d.d.f.#XfX{.] A R R B [ 8.6.6.W.W.7.6.6.6.x.6.6.W.",
"6.W.~.H M c.4.D U U B !.U.m.<.W.6.6.W.6.6.W.6.6.W.4.#.j - + %.F.=.# * j +.V.d.d.d.C.%XuXv.) A R ( B J W.5.5.4.W.W.6.6.5.7.6.6.6.",
"6.7.~.{ N Z !.F U T B J XXU.t.>.W.6.6.6.6.6.W.1.6.6.k.2 2 j d.0XL.j l 3 i.q.g.d.f.T.fXJ.c.S ^ ^ ( B J !.5.H <.W.6.8.6.6.6.W.6.6.",
"6.6.W.{ B N { ` Y R b J ~.OXR.+.K 1.7.W.6.6.7.E.6.6.k.6 4 i.R.yXR.s.6 4 e.w.s.d.Z.dXK.W { S / D / S ' M.S M z.6.6.x.6.8.W.W.E.4.",
"6.6.Q.{ ~ B ) G A R A G Q.~.yXL.k H 1.6.W.6.6.6.7.4.k.x qXs.$XaX$Xs.8X3Xa.u.d.h.$XuX} ~ ) S / / / S ) ) M F 4.W.7.5.5.4.6.6.6.6.",
"7.6.1.E.~ ~ B ) ~ ( ( V W.4.v.0XU.e.Z -.W.^.E.W.7.6.l.h.I.s.$XaXpXd.L.h.s.g.C.#XoX` ` V ) ~ ` / / ~ V S ~ _  XM.[./.W.E.7.4.6.6.",
"E.W.6.~.S ( B N ~ } ` S z.7.7.!.oXiXP.l +.Z -.,.x.x.b.s.a.d.pXeXiXd.g.r.g.Y.T.K.~ /  .~ N (  . . ./ B ) } 9XlXsXjXlXuXK.v.^.5.~.",
"E.6.6.x.G ` S N ) ] ` G z.6.7.4.1.{.yXiXU.i.+.q.q.w.e.q.s.s.aXI.rXd.s.f.P.A.v.{ G  .` ) N } ` `  .` F ` ` tXgX@X*XzXMXmXoX_.6.6.",
"!.6.6.<.' { H M ] ..!.) K 6.W.6.W.7.x.[.oXiXiXR.T.L.C.C.s.d.rXL.rXh.t.k.b.6.4.' ` J  .) V ] .. . ...] {  .oXgX@X*XzXNXNXkXN.6.5.",
"W.6.1.:.[ ~.K M [ E.E.K K 7.W.6.W.6.6.1.1.W.N. XoXyXyXyXh.f.iXB.iXh.t.1.4.W.x.H ] ..L F G L .. .....L L J tXNXMXNXNXNXmXlX.X1.5.",
"6.6.W.4.W.W.z.J W.W.W.K K 7.W.6.W.7.W.6.W.6.5.6.4.6.W.x.t.r.iXN.iXa.+.1.6.~.c.J 4.E.E.E.K E.E.4.E...E.E.z.K.hXnXNXNXuXJ.} [.W.5.",
"6.6.W.W.W.E.W.W.W.~.6.:.K W.6.W.W.x.W.6.7.6.7.E.6.6.6.<.2 u.D.W D.z 2 <.5.W.J c.W.E.E.E.E.E.W.E.!.E.Q.E.!.{ _ J.9XJ.M.v.c.~.6.6.",
"6.6.6.6.W.W.6.6.6.W.6.5.<.E.W.W.E.W.W.6.6.W.W.1.6.6.6.j.6 8 9 7 0 8 8 j.5.K K W.W.W.W.Q.W.W.W.W.W.W.W.W.~.E.H x.>.c.E.W.!.W.5.6.",
"6.6.W.6.6.6.4.4.4.4.6.6.6.6.W.W.x.W.W.6.6.6.6.6.6.W.6.Q 9 ;X0 q 0 0 9 e 5.K W.W.6.W.6.W.W.6.6.6.6.W.6.W.6.W.<.1.W.7.7.W.W.6.5.6.",
"W.6.6.6.6.6.6.7.6.6.6.6.6.6.W.W.W.6.4.W.6.W.6.W.6.6.z.7 9 1X1Xw x 1X0 q >.7.6.6.6.W.6.6.6.6.6.6.6.8.6.6.6.~.W.^.W.x.x.~.6.6.6.6.",
"1.7.6.6.6.6.W.6.6.6.6.W.W.W.6.W.W.W.x.6.6.W.6.6.6.6.l.1 9 x w 3 0 z ;X8 _ 4.5.7.4.6.6.4.6.7.4.7.7.6.5.6.7.6.1.6.W.W.6.6.6.6.6.6.",
"6.W.W.6.6.6.1.W.6.6.W.6.6.W.W.1.W.E.7.6.6.6.6.6.6.W._ : 7 j.1 W 1 j.e : Z 7.6.6.7.4.6.4.6.4.6.4.W.4.5.6.6.4.4.4.W.W.6.5.6.7.6.4.",
"6.6.6.6.6.6.6.6.6.x.6.6.6.W.6.6.W.6.6.W.6.Q.6.6.6.W.<.< e l.- K 3 >.Q 1 l.^.6.6.W.6.6.W.6.6.6.4.W.6.4.6.x.7.6.6.6.6.6.6.6.5.5.6.",
"W.6.1.W.6.W.W.6.6.4.W.6.6.6.6.6.7.W.6.6.6.1.W.6.6.6.6.Z 3 7.[ E.:.6.W 3 6.6.6.6.6.6.6.6.6.6.6.W.W.W.6.4.6.W.6.6.W.6.6.6.6.6.6.6.",
"6.W.W.6.6.6.6.6.6.6.W.6.x.6.W.4.6.1.6.6.6.6.W.6.6.W.6.H W 5.6.6.7.6._ Z 6.6.6.6.6.6.6.6.6.x.W.W.7.4.1.W.4.7.6.6.6.6.6.6.6.W.6.W.",
"6.6.6.6.6.6.W.6.6.W.6.6.7.6.6.W.W.6.6.W.6.6.6.6.6.6.6.x.6.6.W.6.6.6.6.6.W.6.6.W.W.6.6.6.6.W.W.W.7.7.J K W.6.6.W.6.6.6.6.8.x.W.W."
};
