/* XPM */
static char *bcb5a1c005654b31ac44e544b9cfe8c567umO0kd2Bl4O7UP[] = {
/* columns rows colors chars-per-pixel */
"64 64 251 2 ",
"   c #5C1D3A",
".  c #661E3C",
"X  c #5E203C",
"o  c #6A233D",
"O  c #19643C",
"+  c #711F44",
"@  c #5E2641",
"#  c #6C2243",
"$  c #632C42",
"%  c #732446",
"&  c #75254A",
"*  c #7A254C",
"=  c #772848",
"-  c #7B2A4D",
";  c #6E324C",
":  c #792951",
">  c #7D2A51",
",  c #753856",
"<  c #2F5E74",
"1  c #317877",
"2  c #754D4F",
"3  c #7D6F4E",
"4  c #4D4F7C",
"5  c #7A4564",
"6  c #AA030F",
"7  c #A20F1E",
"8  c #B80A15",
"9  c #C60E1B",
"0  c #CE131E",
"q  c #CC1326",
"w  c #D91525",
"e  c #862D4C",
"r  c #832C54",
"t  c #892D56",
"y  c #872F59",
"u  c #8A2E5A",
"i  c #873556",
"p  c #86315B",
"a  c #8D315C",
"s  c #90335E",
"d  c #A2334D",
"f  c #8B3561",
"g  c #913361",
"h  c #C53348",
"j  c #874B59",
"k  c #86595A",
"l  c #AC4653",
"z  c #A34854",
"x  c #B84655",
"c  c #85764D",
"v  c #876759",
"b  c #867759",
"n  c #994A66",
"m  c #8E5066",
"M  c #AE5568",
"N  c #98686F",
"B  c #A9677A",
"V  c #C34656",
"C  c #C6586A",
"Z  c #C56975",
"A  c #77AF36",
"S  c #7AB539",
"D  c #308857",
"F  c #378C7A",
"G  c #38AB6E",
"H  c #789144",
"J  c #59A259",
"K  c #7ABB47",
"L  c #6CB657",
"P  c #4C9473",
"I  c #6A9D74",
"U  c #56A865",
"Y  c #4AA971",
"T  c #63A667",
"R  c #76AD6D",
"E  c #7DC244",
"W  c #72CF59",
"Q  c #7AC360",
"!  c #82BA3A",
"~  c #8BC43E",
"^  c #8CC83B",
"/  c #93CA3D",
"(  c #9CCC3C",
")  c #848849",
"_  c #889550",
"`  c #89A947",
"'  c #88BC43",
"]  c #92B94C",
"[  c #8EAF53",
"{  c #9A9F7D",
"}  c #8BB56D",
"|  c #85C542",
" . c #8BC441",
".. c #8DC843",
"X. c #8AC54A",
"o. c #92C643",
"O. c #94CA43",
"+. c #9BCB46",
"@. c #97C74A",
"#. c #9DCB49",
"$. c #9BC854",
"%. c #8AD154",
"&. c #A1C654",
"*. c #8DCB6B",
"=. c #97C974",
"-. c #AED077",
";. c #8EED73",
":. c #2F568E",
">. c #2C699A",
",. c #2F7096",
"<. c #2D6EA1",
"1. c #2D76A5",
"2. c #337CA7",
"3. c #485A89",
"4. c #466696",
"5. c #4B789B",
"6. c #527194",
"7. c #6A7E9C",
"8. c #777097",
"9. c #4E73A3",
"0. c #6E7AA6",
"q. c #9F5D83",
"w. c #996A8E",
"e. c #8F7395",
"r. c #977999",
"t. c #AA7487",
"y. c #B2708C",
"u. c #A37D9B",
"i. c #AA7B9A",
"p. c #8579A1",
"a. c #B07CA1",
"s. c #C67B8A",
"d. c #378D8E",
"f. c #399782",
"g. c #2E81A6",
"h. c #3583A9",
"j. c #3386B2",
"k. c #498E99",
"l. c #5A869A",
"z. c #6F8F92",
"x. c #4AB682",
"c. c #75AB98",
"v. c #5987A2",
"b. c #4F90AA",
"n. c #678AA8",
"m. c #768BAD",
"M. c #6C99A8",
"N. c #7798B6",
"B. c #73AAB6",
"V. c #878A90",
"C. c #8B9495",
"Z. c #A5829C",
"A. c #B88799",
"S. c #8CAB97",
"D. c #A9A888",
"F. c #B0A990",
"G. c #948DAE",
"H. c #869BB7",
"J. c #A785A4",
"K. c #BC85AD",
"L. c #BA89AD",
"P. c #BA8AB5",
"I. c #A791B7",
"U. c #B893B7",
"Y. c #8EABB1",
"T. c #AFA9B1",
"R. c #A4A8B8",
"E. c #A7B7B7",
"W. c #CC8A96",
"Q. c #C696A8",
"!. c #C688B5",
"~. c #CD8CBC",
"^. c #D28DBE",
"/. c #C596B9",
"(. c #D395B0",
"). c #CBA3B7",
"_. c #D7A8B3",
"`. c #D2ACB1",
"'. c #E5AEBA",
"]. c #93CA8A",
"[. c #AECD8B",
"{. c #97D3AB",
"}. c #B1CCA6",
"|. c #A6C6B9",
" X c #C6DE90",
".X c #C7D9B7",
"XX c #D2EAB2",
"oX c #8A9CCB",
"OX c #9496C5",
"+X c #9A9CD3",
"@X c #AE97C9",
"#X c #87A4CC",
"$X c #95ABC8",
"%X c #91AECD",
"&X c #B0AFCB",
"*X c #ABB9D9",
"=X c #9EADEA",
"-X c #D28EC2",
";X c #C899C6",
":X c #D493C4",
">X c #D996C5",
",X c #D598C5",
"<X c #D793C8",
"1X c #DA95CA",
"2X c #DC9ACB",
"3X c #E29ACE",
"4X c #E59BD3",
"5X c #C8A6C6",
"6X c #D3ADCB",
"7X c #C9B4C8",
"8X c #D8B6CA",
"9X c #CDACD2",
"0X c #D8B7D4",
"qX c #E3B9C9",
"wX c #E2BED8",
"eX c #99C7CC",
"rX c #ADC5D3",
"tX c #BBD7DA",
"yX c #BEDAE5",
"uX c #CBC2D4",
"iX c #DCC4D8",
"pX c #C2DCDD",
"aX c #E4C1CD",
"sX c #E1C3DB",
"dX c #E7C9D9",
"fX c #ECD4DC",
"gX c #F2D1DC",
"hX c #D0E4D1",
"jX c #EDF5D7",
"kX c #C6D8E6",
"lX c #D4D2E6",
"zX c #E6C9E3",
"xX c #EDCDE4",
"cX c #F3CDE9",
"vX c #EAD7E6",
"bX c #EDDCEB",
"nX c #F2D6E5",
"mX c #F2D4EC",
"MX c #F3DCED",
"NX c #EFD4F4",
"BX c #F7DCF2",
"VX c #CBE8E5",
"CX c #DBE8EC",
"ZX c #DBE5F1",
"AX c #ECE3EB",
"SX c #F2E4ED",
"DX c #F5E3F3",
"FX c #F9E3F4",
"GX c #F5EAF4",
"HX c #F2EEF6",
"JX c #F9EBF7",
/* pixels */
"#.#.#.#.#.&.#.#.#.#.#.#.#.#.#.#.#.#.#.#.#.#.#.#.#.#.#.#.#.#.#.#.#.#.#.#.#.#.#.#.#.#.#.#.#.#.#.#.#.#.#.#.#.#.#.#.#.#.( ( ;.&.-.].",
"#.#.#.#.#.#.#.#.#.#.#.#.#.#.#.&.&.#.#.#.#.#.#.#.#.&.#.#.#.#.#.#.#.#.#.#.#.&.#.#.#.#.#.&.&.#.#.#.#.#.#.#.#.#.#.#.( -.-.#.( ( #.#.",
"#.&.#.#.#.#.#.#.#.#.&.#.#.#.#.#.#.#.#.#.#.#.#.#.#.#.#.#.#.#.#.#.&.#.#.#.#.#.#.#.#.#.#.#.#.#.#.#.#.#.#.( #.#.&.#.#.#.#.#.#.#.+.+.",
"#.#.#.#.#.#.#.#.#.#.#.#.#.#.#.#.#.#.#.#.#.&.#.#.#.#.#.#.#.#.#.#.#.#.#.#.#.&.#.#.#.#.#.&.#.#.#.#.#.#.#.#.#.#.#.#.#.( #.#.#.$.#.#.",
"#.#.#.#.#.#.#.#.#.#.#.#.#.#.&.#.#.#.#.#.#.#.#.$.#.&.#.#.#.#.#.#.#.#.#.#.#.#.#.#.#.#.#.#.#.#.#.+.&.#.#.#.#.#.#.#.#.#.#.#.#.#.#.%.",
"#.#.#.#.( #.#.#.#.#.#.#.#.#.#.#.#.#.#.#.#.#.#.+.#.#.#.#.#.#.#.#.-.#.#.#.#.#.#.#.#.#.#.#.#.#.#.#.&.#.#.#.#.#.#.#.#.#.#.#.#.#.#.#.",
"( #.&.&.#.#.#.#.#.#.#.#.#.#.#.#.#.#.#.#.#.#.#.#.#.#.#.#.#.#.#.#.( ( #.#.#.#.#.#.#.#.#.#.#.#.+.#.#.#.#.#.#.#.#.#.#.#.#.#.#.#.#.#.",
"( ( #.#.&.#.#.#.#.#.#.#.#.#.#.#.+.+.+.#.#.#.+.#.#.#.#.#.#.#.#.#.#.( #.( #.#.#.#.#.+.#.+.+.#.#.#.#.#.#.#.#.#.#.#.#.#.#.#.#.#.#.#.",
"/ ( ( ( +.+.#.+.#.#.#.#.( #.#.#.#.#.#.#.+.#.+.#.#.+.@.#.#.#.+.+.#.#.#.#.#.+.#.+.+.#.#.@.#.#.#.+.+.#.@.#.#.+.@.+.#.#.#.+.#.+.+.+.",
"+.@.&.( +.+.@.+.#.#.#.#.#.#.#.#.#.#.#.#.#.#.#.$.@.#.#.#.#.#.+.#.#.#.#.( +.+.#.@.#.+.+.+.+.#.@.+.#.+.+.+.@.+.#.+.#.#.+.+.#.+.#.+.",
"$.-. X X-.#.+.@.( ( #.#.#.#.#.( #._ c c 3 H _ [ [ ] $.@.@.+.$.#.#.#.#.#.#.+.#.@.+.#.#.+.+.+.+.+.#.@.+.+.#.#.+.+.#.#.#.+.+.#.+.#.",
"&.-.XXXX X&.+.+.#.#.#.#.( #.#.#.] k M o ; : , , 5 j v v b _ _ [ &.&.#.#.@.@.#.@.+.+.@.+.@.#.+.+.+.+.+.+.@.+.+.+.#.+.%.+.+.+.+.#.",
"&.] &.$.$.@.+.+.+.O.O.+.+.+.+.O.c N 8Xy.= * r * - > r t a f f j z k v b b _ _ [ [ X.@.O.+.O.O.+.@.+.+.O.+.+.+.+.+.O.O.O.+.+.O.+.",
"#.#.$.$.@.+.O.O.O.+.O.O.+.+.O.] k ).SXaXn * * & - e r t t t a a s s u a a f f j j m k b _ @.O.O.O.O.+.O.O.O.O.O.O.+.O.O.O.O.O.O.",
"+.+.@.+.O.O.O./ O.O.O.+.O.O...3 Z.nXJXJXqXn * e - r r t t i t y u u u p u u a y f p a p j _ O.o.O.O.O.O.O.O.O.+.O.O.+.O.O.O.O.O.",
"O.O.O.O.+.O.O.O.+.O.O.O.+.O._ k aXSXGXGXSX).i * r r > r t t y y u t u t y y y y r r i t f j [ @.O.O.O.O.O.O.+.O.+.O.O.+.O.O.O.+.",
"@.O.+.O.@.O.+.O.O.+.O.O.O.] 2 Q.AXAXJXJXHXGXA.e e - r > r r t y y y y y y y y u u r y y a , j [ +.O.O.+.O.O.+.O.+.O.+.O.O.O.O.+.",
"O./ / O.@.+.+.O.O.O.O.+.O.) B vXHXHXJXJXJXHXGXB = - * : - r u p f u u a u y u u u p p y p p i k ] O.O.O.O.O.O.O.+.O.O.O.+.O.O.O.",
"/ / O.O.O.O.O.O.O.O.O.O.` k ).AXSXSXHXSXAXGXHXfXN - & - r r t u a u u s u a u a a y u u a u y y v ] +.O.O.O.O.O.O.O.O.O.O.O.O.O.",
"O.O.O.O.O...O...O.O.O. .c i.vXAXAXSXAX`.W.fXHXHXaXn = * - - r y a s a s s u a s a a a a p y p u i b X.O.O./ O.O./ O.O.../ ..O.O.",
"..O./ O.O.O.O.O.O...O._ N dXJXJXSXgX_.V C `.SXHXJX`.n = - : r r u g a s s u s s a a a u u f p u u , ) @.@...O.O.O.O.O.O.O.O.O.O.",
"....O...O...O.O.O... .3 L.bXAXqX'.Z V V Z `.SXJXHXSX(.i = * : r u g a g g s u u a a a a s a a y t u s ) +.O.o.o.....O...O.O./ O.",
"O.O.O.O.O.O.O...O.O.) t.fXAX.Xs.C W.Z '.nXaXaXJXGXJXBXA.e % * - > y u u g u u a a u a g s a a g i i s j _ +.O.O.O.O.O.O.O.O./ O.",
"O.....O.../ ..O./ ` k 8XfXs.W.W.C W.gXvX`.Z `.SXJXGXFXxXt.= = = : > r y u u u a a g g a a p g g s a a u j ` O.O.O...o.O.%./ / O.",
"/ / ../ ../ ../ ..c A.vXfXZ M W.'.fXaXW.Z Z Z aXGXGXDXDXdXN e = & * > > r y t u p a s a u u a g s s s s g k ` / / ..o.O.../ ^ X.",
"O.......o...o..._ N dXGXSXaX'.nXgX`.`.Z s.Q.qXDXJXJXDXGXFXqXs o # & * * * r > r r t u u s s u g a s s s s g v ' ....^ / ../ ^ %.",
"..O.......O.O.] v /.SXbXAXbXnX_.s.Z Z W.aXMXGXFXDXGXDXDXSXvXQ.i # # + % % * * * - r - y t u u u a a s u s s f b X.@...^ / / ....",
"O.....O.o...O.) t.vXBXbXnXdXQ.s.s.s.'.gXBXFXFXFXJXFXJXJXDXDXAXQ.- # # + % % & & = - > : > r t r t t y y t y p i c ....../ / o...",
"../ ..o.o...` v qXFXFXFXxXy.Z W.qXwXDXDXDXDXDXJXJXJXFXFXFXJXDXMXi.# # # + % % % & * * - : : > > e r r r r r y t i )  ./ / o./ o.",
"....o.o.o...3 W.mXBXMXMXnXW.(.wXvXnXbXMXMXBXDXDXDXFXGXFXMXnXvXvXaXB # . + # % % # % & & & & * : - > > r r r r r t , ) ~ o./ o.o.",
"O.....o...` N dXmXMXBXMXAXgXdXMXvXnXMXMXBXBXDXDXJXGXFXFXFXDXDXDXJXaXm # # # # # # & % # # % & * - : - - > > - r e > 2 _ ....~ o.",
"..^ ..~ ' b _.FXBXFXFXFXSXDXBXBXFXFXMXnXvXnXnXnXnXSXMXSXSXnXnXnXnXxXQ.i # . # # # # # # % % & * & & & : - > > > r * & 2 `  .....",
" . .o.' ) t.zXmXnXMXMXnXmXvXzXxXdX_.M x l x x l x l l l l l l z z d n B #             X . . $ # % % % & & & & & & & = * 2 K !  .",
"o.~ o.! b 8XBXBXBXBXFXBXBXDXDXgXW.h 0 0 9 9 9 9 8 8 8 8 6 6 6 6 7 d y.a.q.5 5 5 , , , ; ; ; $ X @ @ @ X   X @ X X   o $ X 3 '  .",
"..~  .c Q.xXMXBXBXBXBXFXDXMXqXC w w w w w 0 0 0 0 9 8 9 9 8 6 7 m @X&XP.~.:X;X-X>X>X>X(.@XT.T.U.G.J.G.Z.u.u.u.y.w.B 3 H H H ! ..",
"..~ ! H `.sXvXvXmXMXvXnXsXW.V w w w w w w w w 0 w q q 9 q 9 d i.&X=X=XP.!.~.^.-X-X:X>X&Xm.v.N.%X5.5.9.5.9.p.@X<X3X<XD.X.^ ..~  .",
"~ ~ ~  .-.dXDXDXFXBXFXFX).z l x V x V x x V V x x x x x d n @X=X=X=X+XP.-X,X>X1X1X2X,X&XB.b.B.B.k.9.<.,.>.3.I.2X4X1XF. .~ ~ ~ ~ ",
"~ ~ ~ ~ [.dXmXmXnXMXBXmXdXuX&X7X6XU.U.U.I.U.U.U.I.J.R.uXR.7.0.p.OXp.I.!.~.:X>X>X>X2X/.H.j.j.eXM.k.h.k.2.5.9.H.6X4X3XF. .~ ~ ~ ~ ",
"~ ~ ~ ~ [.0X0XiXiX8XU.U.G.&XG.G.J.u.Z.Z.u.w.L.L.z.F k.eXz.F F V.P.:X6X~.!.~.~.~.:X>XU.n.g.h.#XM.h.h.2.<.>.:.l.@X1X1XF. . .~ ~  .",
" . . . .[.5X8XiXiX7Xr.3.3.G.n.4 3.e.u.Z.Z.w.L.L.8.F 1 Y.k.,.F V.U.sXwX~.^.,X>X>X2X2XU.M.,.g.B.b.j.j.j.g.1.>.l.9X4X4XF. .~ ~ ~ ~ ",
"~ ' ~ ~ [.5X6XsXiX8Xp.9.4.H.n.:.3.r.J.J.i.w.K.L.V.1 < Y.4.,.F V.6XzX0X!.^.^.>X>X>X2XU.n.>.<.B.b.g.j.j.j.2.<.7.9X4X4XF.|  .~  .~ ",
"~ ^ ^ ~ }.5X0XsXsX0Xp.6.9.$XN.4.9.r.i.Z.i.w.K.P.V.1 3.$X6.,.f.R.NXmX0XK.!.^.^.^.^.,XU.7.:.>.N.v.<.2.2.j.j.1.v.@X<X-XD. . .~ ~ ~ ",
"~ ~ ^ ~ }.5X6XiXwX9Xp.4.9.$XH.4.0.r.a.J.Z.w.K.K.z.F l.$X5.,.G E.sXwX9X!.^.>X>X1X2X3X/.7.:.:.B.l.,.1.<.g.j.2.n.9X4X<XD.'  .~ ~  .",
"^ ~ ~ A }.).5XiXwX;X8.3.4.$XH.m.8.e.r.J.r.w.K.K.V.F 6.eXl.d.f.rXcXzX9X!.:X>X>X1X,X3XU.7.:.:.M.v.<.>.>.<.1.2.v.9X4X-XD.' ~ ~ ~ ~ ",
"| K Q L E.5X7XiXwX6X8.:.6.$XY.Y.C.e.u.u.u.w.K.K.C.F 1 &Xn.k.G rXmXcX0X!.a.1X^.^.^.>XU.7.:.:.N.l.>.,.<.>.<.,.7.U.:X~.{ ~ ~ ~ ~ ~ ",
"~ W x.x.|.).6XwXwX5Xe.p.G.rXY.F.Z.r.i.u.i.w.K.L.C.k.l.&XN.k.f.E.zXwX9X!.-X3X>X1X>X2X~.R.R.R.R.N.M.N.H.H.H.H.Y.;X2X>X{ ~ ~  .~ ~ ",
"..L G x.|.5X/.5X/./.~.@X&XvXR.J.J.Z.i.a.i.a.K.K.C.P B.kXn.h.f.&XNXcX0Xa.^.1X1X<X2X2X,X5X;X,X;X).5X;X;X;X;X;X;X:X1X!.{ ~  . . .~ ",
"^ L G G |.wXzXzXxXzXcXxXzXZX&XU.L.Q.Q./.!.U./.U.C.x.{.yXB.d.f.E.zXwX6X!.a.<X^.^.:X<X<X1X<X:X:X:X:X<X<X-X^.^.^.^.^.!.{ | | | | ~ ",
"^ L G G |.sXxXcXcXcXNXzXlXkX&X9XsXlXsXlXzXlXzXuX|.c.|.VX#XB.c.R.&X5XT.U.-X<X>X>X2X2X2X,X1X<X1X2X2X3X3X2X3X1X1X>X1X!.C.%.*.W %.%.",
"~ L D D E.vXNXmXcXcXNXiXkXkXyXkXlXZXZXZXZXZXZXCXCXVXpXVXrXrXeX*X*X*X*X@X;X-X;X-X;X<X;X;X;X;X;XU.I.U.P.P.@X;X;X@X@XU.S.;.;.;.%...",
"| Q D O S.CXvXfXvXAXlXrXrXtXtXtXyXtXtXtXkXtXkXtXkXtXtXkX%XoXoXoXoX+XoX+XOX@X+X+X+X+X+X+X+X+X+Xm.m.n.0.m.oX$XoXOX+X*X|.].W W E ^ ",
"| -.].D z.c.S.c.Y.Y.S.c.|.tXtXVXVXVXVXVXVXVXVXVXVXVXpXtXY.#X#X%X#X#X#X#X#XoX#XoXoXN.N.N.N.N.M.M.z.z.z.I I S.E.S.|..XjXXX;.;.%.| ",
"| =.{.Y U U Y P U U J J J T R } } =.*.*.=.*.=.=.=.-.=.*.} } R R R R R I I I I T U U T T U L L Q W S K E S ].jX.X}.}.XXhXXX;.%.^ ",
"..X.R L E | K K K E X.S S | | ~ ! ~ ' | ! ~ ~ ~ ^ ~ ~ ~ ^ ^ ~ ~ .. .~ ! | ' K A | | E K E | X.| | E E ~ ~ } .X.X}.[.[.[.[.;.W ^ ",
" .' ' | |  . . .|  . .! S  . . . . .~ ~ ~ ~ ~ ~ ~ ~ ~ ~ ! ~ ~ ~ ~ o.~ ^ ~  .A ' | |  . . .| | | ^ | |  ...K H } } $.%.%.%.%.^ ^ ",
"~ ~  .~  . . .~  . .^ ! ^ ' ~  . . . .~ ~ ~ ~ ' ~ ~ ~ | ^ ~ ~ ~ ~ ! ^ ^ ~ ! S X. . . . .~ ....| | | .... .! K ' ! ' ^ ^ %.^ ^ ^ ",
"~ ~  .~ ~ ~ ~ ~ ~ ~ ~ ^ ~  . .~  .' ~ ~ ~ ~ ~ ~ ~ ~  .~ ~ ..o.! o.~ ~ ~ ! !  .~ ~ ~ ~ ~ ~ ~ ~ ~ ~ ~ ~ ~  . .! ! ! o.~  . .~ ~ ^ ",
" .~ ~ ~ ~ ^ ~ ~ ~ ~ ~ ~ ~ ~  . . .~ ..~ ~ ~ ~ ~  .~ ~ ~ ~ ~ ~  .~ ~ ~ ~ ~ ..! ~ ~ ~ ~ ~ | ~ ~ ~ ~ ~ ~ ~  .o.o.o.' o.o.' ~ ~ ~ ~ ",
"~ ~ ~ ~ ~ ~ ~ ~ ~ ~ ~  .~ '  . . . . .~ ~ ~ ~  .! o.~ ~ ~ ~ ~ ~ ~ ~ ~ ~ ~ ~ / ~ ~ ~ ~ ~ ~ ~ ^ | ~ ~ ^ ~ ~ ~ ^ ! o. .~ ~ ~ ~ ~ ~ ",
"~ ~ ~ ~ ~ ~  .~ ~ ~ ~  . .~  .~  .~  .~ ~  .~ ~ ..~  .~ ~ ~ ~ ~ ~  . .~ ~ ~ ~ ~ ~ ~ ~ ~ ~ ^ ~ ^ ~ ~ ~ ^ ~ ~ ~ ~  .~ ~ ^ ~ ~ ^ ~ ",
"~ o.~ .. .~ ~  . .~ ~  .~ ~ ~  .o.~ ..~ ~ ~ ..~ ~ ~ ~ ~  .~ ~  .~ ~ ~ ~ ~ ~ ~ ~ ~ ~ ~ ~ ~ ~ ^ ~  . .^ ~  .~ ~  .~ ~ ~ ~ ~ ^ ^ ^ ",
" .! ~ ~ ~ ~ ~ ~ ~ ~ ~ ~ ~ ~ ~ ~ !  .~ ~ ~ ~ ~ o.~ ~  .~ ~ ~ ~ ~ ~ ~  .~ ~ ~ ~ ~  .~ ~  .~ ~ ~  . .~ ^ ~ ~ ~ ~ ~ ~ ~ ~ ~ ~ ^ ~ ~ ",
"~  .~ ~ ..~ ~ ~ ~ ~ ~ ~ ~ ~ ~ ~ ~ ~ ~ ~ ~ ~  .! ~ ~ ~ ~ ~ ~ ~ ~  .~  .~ ~ ~ ~ ~ ~ ~ ~ ~ ~  . .| ~ ~ ~ ~ ~ ^ ~ ~ ~ ~ ~ ~ ~  .!  .",
"~ ~ ~ ~ !  .~ ~  .~ ~  .~ ~  .~ ~ ~  .~ ~  .~ ~ ~  .~ ~ ~ ..~ o.!  .~ ~ ~ ~ ~ ..~  .~ ~ ~  . .~ ^ | S S  .~ ~ o.~ ~ ~ / !  .X. ."
};
