/* XPM */
static char *result[] = {
/* columns rows colors chars-per-pixel */
"64 64 199 2 ",
"   c #6A7B61",
".  c #647574",
"X  c #3E8D2F",
"o  c #27993A",
"O  c #2A9939",
"+  c #3A973A",
"@  c #2CA53B",
"#  c #3AA236",
"$  c #38A339",
"%  c #4E8A2D",
"&  c #528F2F",
"*  c #56932B",
"=  c #5B952B",
"-  c #549A2E",
";  c #4E8737",
":  c #4E8F35",
">  c #558F31",
",  c #4C9333",
"<  c #449C33",
"1  c #4D9C36",
"2  c #459B39",
"3  c #4B9C3C",
"4  c #579535",
"5  c #549B33",
"6  c #559C3C",
"7  c #5B9C3D",
"8  c #629C2D",
"9  c #46A43C",
"0  c #4BA739",
"q  c #59A336",
"w  c #54A43B",
"e  c #5CA33A",
"r  c #58B23D",
"t  c #69AA2C",
"y  c #63A434",
"u  c #6DA736",
"i  c #63A43C",
"p  c #65AC3C",
"a  c #6DAC3C",
"s  c #73AD34",
"d  c #71A73E",
"f  c #72AB3A",
"g  c #62B23D",
"h  c #6CB33C",
"j  c #75B236",
"k  c #7CB535",
"l  c #74B33C",
"z  c #7CB43C",
"x  c #7CBB3E",
"c  c #73C13F",
"v  c #7DC23F",
"b  c #3C9E43",
"n  c #1FA245",
"m  c #1FAA40",
"M  c #28A744",
"N  c #24A44A",
"B  c #3AAA43",
"V  c #2BB349",
"C  c #30B446",
"Z  c #35B24D",
"A  c #3EB54C",
"S  c #28AE50",
"D  c #489F41",
"F  c #6D8A51",
"G  c #619158",
"H  c #44AB41",
"J  c #4CAE43",
"K  c #51AA47",
"L  c #5BA845",
"P  c #51AF4B",
"I  c #48B548",
"U  c #53B542",
"Y  c #54B945",
"T  c #5BBA46",
"R  c #53B54A",
"E  c #5BB34C",
"W  c #5DBB4C",
"Q  c #52B750",
"!  c #63AB46",
"~  c #6CAA44",
"^  c #62A648",
"/  c #74AF42",
"(  c #75AA46",
")  c #6DB343",
"_  c #65BD45",
"`  c #6BBB46",
"'  c #64B34A",
"]  c #63BB4A",
"[  c #6DBA4B",
"{  c #73B342",
"}  c #7BB644",
"|  c #75BC43",
" . c #7BBA43",
".. c #7DB34A",
"X. c #7DBD4D",
"o. c #7BA750",
"O. c #63B052",
"+. c #7AB752",
"@. c #7E9764",
"#. c #6DC142",
"$. c #77C442",
"%. c #7BC241",
"&. c #7DC348",
"*. c #79C050",
"=. c #80B736",
"-. c #81B53A",
";. c #82BC3C",
":. c #8BC637",
">. c #86C63D",
",. c #8BC43F",
"<. c #85C83E",
"1. c #8DCA3D",
"2. c #92C837",
"3. c #91C33D",
"4. c #92CA3D",
"5. c #9CCC3C",
"6. c #80AA49",
"7. c #83B741",
"8. c #83BD43",
"9. c #88BD44",
"0. c #80B64B",
"q. c #85BB4C",
"w. c #8BBD4C",
"e. c #91BF49",
"r. c #88A555",
"t. c #8DAB5E",
"y. c #95A85B",
"u. c #86B753",
"i. c #99B856",
"p. c #94BC5C",
"a. c #8B9B64",
"s. c #89887A",
"d. c #8BAB63",
"f. c #99AB65",
"g. c #93B76B",
"h. c #9CBA78",
"j. c #85C443",
"k. c #8CC541",
"l. c #87C941",
"z. c #8EC943",
"x. c #84C34B",
"c. c #8CC349",
"v. c #87C84C",
"b. c #8DC84A",
"n. c #92C642",
"m. c #99C644",
"M. c #93C943",
"N. c #9BCB46",
"B. c #94C44A",
"V. c #9DC64C",
"C. c #94CA4A",
"Z. c #9DCB49",
"A. c #8DC755",
"S. c #94C755",
"D. c #9BC453",
"F. c #9CCA51",
"G. c #9AC55A",
"H. c #A0C84D",
"J. c #96C464",
"K. c #9DC46C",
"L. c #98C874",
"P. c #ABC57E",
"I. c #B4D375",
"U. c #ECEA57",
"Y. c #EDE56B",
"T. c #8F7F8E",
"R. c #957CAC",
"E. c #A277AF",
"W. c #898388",
"Q. c #8D908A",
"!. c #958B9B",
"~. c #97B883",
"^. c #9C89A6",
"/. c #A088B4",
"(. c #9DCA87",
"). c #A9C286",
"_. c #BDD886",
"`. c #B5CB99",
"'. c #D0D98F",
"]. c #C6DE90",
"[. c #EAE888",
"{. c #D5DDA0",
"}. c #C9DBB7",
"|. c #D6E7A9",
" X c #D1E4B5",
".X c #EDE3AE",
"XX c #F1E4AD",
"oX c #B999C0",
"OX c #D5DDCE",
"+X c #DFE4C5",
"@X c #DDE8D3",
"#X c #EEE9D5",
"$X c #F3EFD5",
"%X c #F7F7DE",
"&X c #E8E8E5",
"*X c #EDF2E8",
"=X c #F9F2E6",
"-X c #F2F5EF",
";X c #F9EFF1",
/* pixels */
"Z.Z.Z.H.Z.Z.H.Z.Z.Z.Z.Z.H.Z.Z.H.Z.Z.H.Z.Z.H.Z.Z.Z.Z.Z.Z.H.Z.Z.H.Z.Z.Z.Z.Z.F.Z.Z.Z.Z.Z.Z.Z.Z.H.Z.Z.Z.H.Z.Z.Z.Z.I.5.5.5.5.F.L.L.(.",
"Z.H.H.Z.Z.Z.Z.H.Z.Z.Z.Z.H.Z.Z.Z.Z.Z.Z.Z.Z.Z.Z.H.Z.H.H.Z.Z.H.H.Z.Z.Z.Z.Z.Z.Z.Z.Z.Z.Z.Z.Z.Z.H.H.Z.Z.5.Z.Z.Z.Z.Z.Z.Z.F.I.Z.N.N.N.N.",
"Z.Z.Z.Z.Z.Z.H.Z.Z.Z.H.Z.Z.Z.Z.Z.Z.H.Z.F.Z.H.Z.Z.Z.Z.Z.Z.Z.Z.Z.Z.Z.U.N.Z.Z.Z.Z.Z.F.Z.Z.Z.Z.H.Z.Z.Z.Z.Z.5.Z.Z.Z.F.Z.Z.Z.Z.N.N.N.N.",
"Z.Z.Z.Z.H.Z.Z.Z.Z.H.Z.Z.Z.Z.Z.H.Z.Z.Z.H.Z.Z.Z.Z.Z.H.Z.Z.Z.Z.Z.Z.Z.Z.N.N.Z.Z.Z.Z.Z.F.Z.Z.Z.Z.Z.Z.H.H.H.H.Z.Z.F.Z.Z.Z.Z.Z.Z.F.F.Z.",
"Z.Z.Z.Z.Z.Z.Z.Z.Z.Z.Z.Z.H.Z.Z.H.Z.Z.Z.Z.Z.F.Z.Z.Z.Z.Z.Z.Z.Z.Z.Z.Z.Z.Z.Z.Z.Z.F.Z.Z.Z.Z.Z.Z.Z.Z.Z.Z.I.Z.Z.Z.Z.Z.Z.Z.F.F.F.Z.Z.Z.F.",
"Z.Z.Z.Z.Z.Z.Z.Z.Z.Z.Z.Z.Z.Z.Z.Z.Z.Z.Z.Z.Z.Z.Z.Z.H.H.Z.Z.Z.Z.Z.Z.Z.Z.Z.Z.Z.Z.Z.Z.Z.Z.Z.Z.Z.Z.Z.Z.5.5.Z.Z.Z.Z.Z.Z.Z.Z.Z.Z.Z.Z.Z.Z.",
"N.Z.Z.H.Z.Z.Z.Z.Z.Z.Z.Z.Z.Z.Z.Z.Z.Z.Z.Z.Z.Z.Z.Z.Z.Z.Z.Z.Z.Z.Z.Z.Z.Z.Z.Z.Z.Z.Z.Z.Z.Z.Z.Z.Z.Z.Z.Z.Z.Z.Z.Z.Z.Z.Z.Z.Z.Z.Z.Z.Z.Z.Z.Z.",
"5.5.Z.H.Z.Z.Z.Z.Z.Z.Z.Z.Z.5.Z.Z.Z.N.N.N.Z.Z.N.N.Z.Z.Z.Z.Z.Z.Z.5.Z.Z.Z.Z.Z.Z.Z.Z.N.N.Z.Z.Z.Z.N.Z.Z.Z.5.Z.Z.Z.Z.Z.Z.Z.N.Z.N.Z.Z.Z.",
"M.5.5.M.N.N.N.N.Z.Z.Z.Z.Z.Z.Z.Z.N.N.N.Z.Z.N.V.N.N.Z.Z.N.N.N.N.N.Z.Z.Z.Z.Z.Z.N.Z.Z.N.Z.N.N.Z.Z.N.Z.Z.N.N.Z.N.N.N.Z.N.N.N.N.N.N.N.",
"M.N.F.N.N.N.N.Z.Z.Z.Z.5.Z.Z.5.Z.Z.Z.N.N.N.Z.Z.N.Z.Z.N.Z.N.F.N.N.Z.Z.Z.Z.N.Z.Z.N.C.N.N.Z.N.N.C.N.Z.N.Z.C.C.Z.Z.N.N.N.N.N.F.N.N.F.",
"F.I.].].I.F.N.Z.Z.Z.Z.Z.Z.Z.Z.Z.Z.N.N.N.Z.N.V.Z.M.Z.Z.C.Z.N.N.Z.Z.N.5.Z.N.N.N.N.N.N.Z.Z.C.Z.N.N.Z.N.Z.Z.N.N.N.N.N.N.N.F.C.F.N.N.",
"F._.|.|.].F.N.N.5.Z.Z.Z.5.Z.Z.Z.N.N.N.N.C.N.N.N.N.N.Z.Z.N.N.N.N.N.Z.Z.Z.N.N.N.N.Z.N.N.C.N.N.N.N.N.N.N.N.Z.N.N.N.N.N.N.N.N.N.N.N.",
"F.S.G.G.F.F.C.M.N.N.N.M.N.N.M.N.N.M.N.C.M.N.N.N.C.N.N.N.N.M.N.M.N.N.M.N.M.N.N.M.C.N.M.N.N.M.M.N.C.N.N.N.M.N.M.C.5.C.N.M.N.C.5.C.",
"N.F.Z.C.M.M.M.N.M.M.M.N.N.M.M.M.M.N.M.N.M.m.5.N.M.M.M.M.4.N.M.N.M.M.N.M.N.M.M.N.M.M.N.M.N.M.N.M.M.M.N.z.N.M.M.N.C.N.M.N.M.N.5.C.",
"N.N.N.M.4.N.4.N.M.M.4.M.M.M.M.N.M.M.M.n.M.M.M.M.4.M.M.M.M.M.N.M.N.N.4.M.M.4.M.M.M.M.M.M.M.N.5.M.N.M.4.z.M.N.4.N.4.M.M.M.M.M.M.M.",
"M.M.N.M.N.N.M.M.M.N.N.M.N.M.N.M.M.M.M.N.N.M.M.N.M.M.M.N.N.M.M.M.M.M.M.N.M.N.N.M.N.M.N.M.M.M.M.N.M.M.M.N.M.N.M.M.M.N.N.4.N.M.N.M.",
"C.M.N.N.C.N.M.M.N.M.M.M.N.M.M.N.M.M.M.M.N.C.v.;.M.M.C.N.M.M.M.N.M.N.M.N.N.M.M.M.M.N.N.M.N.M.M.N.N.N.M.N.N.M.M.N.M.M.M.N.M.M.N.M.",
"M.M.M.M.N.M.M.N.M.M.N.M.M.N.N.M.M.N.M.N.C.A.u s C.N.C.M.M.N.M.N.M.M.M.M.M.5.N.N.M.M.M.M.M.N.M.M.M.M.N.4.M.M.N.M.M.N.M.N.M.N.N.M.",
"5.4.4.M.M.M.M.M.M.M.M.M.M.M.N.M.M.M.M.v A.X.* j C.M.M.M.M.M.C.M.M.N.M.N.M.M.M.M.M.M.M.C.C.C.N.M.4.N.N.C.M.M.M.M.M.M.M.M.M.M.M.M.",
"M.M.M.M.M.M.M.M.M.M.M.M.M.M.M.4.M.M.C.h ~ ) - l M.4.M.M.4.M.4.M.M.M.M.z.M.M.M.C.M.M.4.4.M.M.m.5.4.4.z.z.M.4.M.M.M.4.M.M.4.z.M.M.",
"M.M.M.M.M.M.M.z.M.M.M.M.z.M.M.z.M.M.C.} * y h z N.4.M.M.M.M.z.M.M.M.M.z.M.M.z.M.M.4.5.V.i.y.f.i.N.4.1.M.N.M.M.M.M.M.z.z.4.M.M.N.",
"M.M.M.z.M.M.M.z.z.M.M.z.M.M.M.M.M.M.b.8.y h v.j.M.4.M.M.z.M.M.M.M.M.M.M.M.M.M.1.M.M.S.f.s.^./.W.J.C.z.4.N.M.M.M.M.z.M.M.C.M.M.4.",
"M.M.M.M.M.M.M.M.M.M.z.M.M.M.M.M.z.M.C.j.8.j.b.M.M.M.M.M.M.M.M.M.M.z.z.z.M.z.M.1.4.n.D.a.W.R.R.W.g.C.M.4.4.M.M.M.M.M.M.C.M.M.4.M.",
"1.z.M.z.M.z.M.z.M.z.M.4.M.z.n.n.z.M.n.n.z.b.M.z.z.M.1.M.M.z.n.n.z.M.4.M.M.M.z.M.4.4.B.e.t.a.a.r.v.1.1.z.4.M.M.M.z.4.M.C.C.4.4.M.",
"M.1.z.z.n.z.n.1.n.z.4.z.n.z.n.1.z.n.M.4.n.4.n.n.1.z.M.1.z.n.z.1.M.1.1.M.z.4.M.z.n.n.1.M.n.n.C.n.n.n.B.n.4.4.z.n.z.M.z.M.C.1.1.b.",
"M.z.M.z.z.M.z.n.z.n.z.n.z.z.z.n.M.1.z.4.4.n.n.z.z.z.n.n.n.z.z.n.M.M.z.M.M.z.M.M.n.z.z.z.z.z.M.z.v.b.B.m.1.1.4.1.C.z.1.1.1.1.1.b.",
"M.z.z.M.n.z.n.z.n.z.n.z.z.M.z.n.z.n.n.z.z.n.z.n.n.z.z.M.z.n.z.n.M.z.z.z.M.z.z.z.z.n.n.z.n.z.n.1.4.B.i.i.7.;.n.z.z.C.z.1.4.1.z.b.",
"1.z.M.z.z.n.z.n.z.n.z.n.n.z.n.z.n.z.z.M.n.z.M.z.z.n.z.z.M.z.n.z.z.z.z.M.z.n.z.n.z.M.z.n.z.n.z.B.y.s.!.Q.F 6.B.4.1.M.z.1.4.4.M.z.",
"M.z.z.z.n.z.n.z.M.z.z.n.z.n.z.n.z.M.z.n.z.n.z.n.M.z.z.n.z.n.z.n.z.n.z.n.n.z.M.z.n.z.n.z.z.4.z.t.T.E.oX!.. @.V.m.3.n.z.n.4.4.n.M.",
"z.M.n.n.z.n.z.n.M.z.n.z.n.z.n.z.n.z.n.z.n.z.n.n.z.M.n.z.n.z.n.z.n.z.n.z.z.n.M.z.z.n.z.n.M.z.<.t.T.R.W.    r.S.4.4.z.z.z.4.M.n.4.",
"z.z.n.k.z.n.z.z.z.n.z.n.z.n.z.n.z.n.z.n.z.z.n.k.z.z.n.n.z.z.n.n.z.z.k.n.z.n.z.z.n.z.n.z.z.z.,.e.y.@.G ; / w.B.4.4.z.n.1.k.z.z.1.",
"z.1.z.z.z.z.,.n.z.k.k.z.z.k.k.z.z.k.k.z.z.k.k.z.z.z.,.z.z.k.z.,.k.z.1.n.k.,.z.z.z.k.k.k.1.z.k.4.,.*.D 6 x.k.k.,.z.c.1.,.1.k.z.z.",
",.z.n.,.z.c.c.n.n.b.c.k.z.k.k.,.z.k.z.k.k.n.k.,.,.z.k.z.,.z.k.z.k.z.k.n.z.,.k.k.z.,.k.k.,.z.l.z.c.W o ^ v.k.k.<.z.z.n.1.,.k.k.k.",
"k.,.z.k.z.s z n.n.z.l.k.,.,.z.z.,.k.k.k.z.,.z.z.k.n.,.k.k.k.k.3.k.k.k.,.,.z.,.z.,.z.z.,.k.1.,.z.x.H O ( z.<.k.k.z.z.k.k.k.z.,.z.",
"z.,.z.k.z.d 8 c.c.1.k.c.k.z.z.k.k.n.n.1.,.k.k.k.z.,.z.,.z.,.k.k.k.n.z.z.z.k.n.z.k.k.k.k.k.,.,.z.[ M O u.n.,.z.k.z.z.k.z.,.n.k.z.",
",.k.k.,.z.0.> h k.3.4.c.k.,.,.k.,.,.k.,.k.,.k.,.,.k.,.n.,.k.k.k.,.k.,.,.,.,.,.,.k.,.k.k.k.z.2.j.J n b w.:.:.z.k.,.,.,.,.k.k.,.,.",
",.,.,.,.k.w.4 - j.:.3.c.k.,.,.,.,.,.k.,.,.,.,.k.,.,.k.,.,.k.,.,.,.,.,.k.,.k.,.,.,.,.k.,.,.,.:.| @ N D w.2.:.,.,.,.,.,.,.,.,.,.,.",
",.k.,.,.,.c.a X ~ B.3.j.j.,.,.k.,.,.,.,.k.,.,.,.,.,.,.,.,.,.,.,.k.,.,.,.,.,.,.,.,.,.,.,.,.k.k.g m M i c.,.,.,.,.,.,.k.,.,.,.k.,.",
",.,.k.,.k.,.{ X 6 e.4.,.j.,.,.,.,.,.,.,.,.,.,.,.;.,.,.,.,.,.k.,.,.,.,.,.,.k.,.k.k.,.,.k.k.,.j.0 m @ d z.<.,.,.,.,.k.,.,.,.k.,.,.",
"k.,.k.9.k.j.8.2 + 6.,.>.k.,.,.,.,.,.,.k.,.,.k.,.n.,.,.k.,.z.;.,.,.,.,.,.,.k.;.k.k.,.,.k.j.,.| + V @ a c.j.,.,.,.9.k.k.9.k.,.,.,.",
",.k.k.,.1.>.9.9 o i ,.,.k.,.,.,.k.,.,.k.,.;.n.,.n.,.,.,.k.,.,.,.,.;.n.,.,.,.,.z } n.,.,.k.,.p B V $ l e.k.<.,.,.,.k.k.k.k.>.9.,.",
",.,.,.:.,.,.k.J o + >.9.k.,.,.,.,.,.,.,.,.,.,.,.;.,.,.,.,.,.,.k.,.k.,.,.,.,.k.l = } ,.,.,.c.w Z Z # { n.,.:.,.,.,.k.9.k.,.k.,.,.",
":.:.,.,.k.,.9.U n O l n.k.,.,.,.,.,.,.,.k.,.k.,.,.k.,.k.,.,.,.,.,.,.,.,.k.,.1.0.4 = j.:.n.} 0 Z Z # { 3.,.,.j.k.k.k.>.k.,.,.,.,.",
",.,.,.s z w.k.r n o e c.k.,.9.,.;.z.k.,.,.,.,.,.,.,.,.,.,.k.,.,.,.,.,.k.,.,.k.q.7 1 h 9.z.) 9 A I < x e.:.,.k.k.,.,.,.,.,.,.,.,.",
",.1.c.f 8 0.,.p N N 5 j.c.,.,.,.k.,.,.,.,.,.k.,.,.,.;.,.,.,.,.n.k.,.,.,.k.,.k.8.6 K 6 8.c.i 9 A P < | k.,.,.k.k.9.,.,.,.,.,.,.,.",
",.,.c...% y x.p M S <  .k.,.,.,.;.,.,.k.,.,.,.,.,.k.z.,.k.,.,.;.,.,.,.z.,.k.k.j.q P 6 l w.w J I Q 3 l x.>.t 8.k.,.k.,.3.,.k.,.,.",
",.:.3.X.1 : +.g B C + l ,.,.k.,.n.,.,.,.,.z.,.,.,.,.k.,.,.,.,.k.,.,.,.;.,.,.;.9.7 R K i 0.w U U U w { u.y = 9.:.3.;.k.:.k.j.k.,.",
"k.,.,.X.w 3 ^ p H A 9 u k.,.k.,.,.,.,.,.,.;.k.,.,.,.,.,.,.,.,.,.,.k.,.,.,.,.n.9.e Y E 7 ~ w T T T w ~ ~ - t j.j.1.4.:.<.:.,.,.,.",
"k.,.;.x.K K 3 e L Q P e ,.,.,.,.,.k.,.,.,.k.,.,.,.,.,.,.,.,.,.,.,.k.,.,.,.,.k.8.e T W 7 ^ L ] T W L 5 w ^ ( J.p.A.c.z.k.,.:.,.k.",
"k.,.:.c.e E 3 > ! O.' e j.,.<.,.,.,.,.,.z.;.,.,.9.,.,.,.,.,.k.,.,.,.,.,.,.,.k.X.e _ ] L : ' ] _ #.W , ! O.~.{.'.{. X`.g.B.1.,.c.",
"j.,.3.9.i [ e % ) [ [ i ;.,.,.,.,.,.k.,.,.,.,.,.,.,.,.,.z.,.,.,.,.,.,.k.k.k.k.} p c #.^ : ) _ ` _ [ p [ ' ).[.U.Y..X#X+XP.e.,.>.",
"c.,.,.;.l *.a & | &.&.a x ,.k.,.,.z.;.,.,.,.,.k.,.k.,.,.;.k.,.,.k.,.,.,.,.,.k.{ h c $.! 4 | | #.#.$.| | ) P.[.U.Y.XX=X-X}.p.,.:.",
"j.,.;.=.8.x.z = 8.j.j.z z ,.k.,.k.,.,.,.,.,.,.,.,.,.;.n.,.k.,.,.;.k.,.,.;.k.k.f | $.v l q v v $.$.%.x %.| ).%X$X=X;X&X@X XK.,.:.",
",.,.,.,.,.c.8.z j.k.x.k k z.k.,.k.,.k.,.k.,.,.,.,.k.,.,.,.,.k.,.z.k.,.:.>.k.7.f j.v >.%.x j.j.j.j.j.>.%.%.g.}.OX-X*X`.d.u.q.k.:.",
",.,.1.,.k.k.k.k.c.k.,.=.k z.,.k.,.k.k.k.,.,.,.,.,.,.k.,.,.k.,.,.k.k.,.,.,.k.z 8.k.j.j.j.k.j.j.c.k.j.l.c.c...o.d.h.g.u.u.w.x.j.:.",
",.,.,.k.,.,.,.,.,.,.,.,.;.,.k.9.9.k.k.,.,.,.,.,.,.,.,.,.,.,.,.,.,.k.,.:.,.=.z 9.k.k.k.z.,.z.k.k.k.k.z.k.z.8.j 8.-.-.>.<.c.k.,.,.",
",.,.,.k.,.,.,.:.,.,.,.,.,.,.,.k.,.k.,.,.,.,.,.9.,.,.,.,.,.,.,.,.k.,.,.,.;.=.k.k.,.k.,.k.,.,.,.,.,.k.,.k.1.c.;.;.3.,.,.k.k.,.,.,.",
",.,.,.,.,.,.,.,.:.,.,.,.,.,.k.k.9.k.k.,.k.,.,.,.,.,.k.,.,.k.,.,.,.,.,.,.,.,.,.,.,.k.;.n.,.,.,.,.,.,.,.k.,.9.n.k.9.n.k.e.,.,.,.,.",
"k.,.,.,.,.,.;.z.,.,.,.k.j.k.9.,.k.k.k.,.,.,.,.,.,.k.,.,.,.,.,.,.k.z.,.,.,.,.,.1.:.<.,.>.1.<.,.,.,.,.,.:.,.:.,.,.k.k.,.,.,.,.,.,.",
",.,.,.,.,.,.k.,.,.,.k.,.,.,.k.,.k.,.k.k.,.,.k.,.,.,.n.;.k.,.z.;.,.;.k.,.,.,.,.,.,.<.,.,.,.,.:.<.,.<.,.,.k.:.:.,.k.,.:.,.,.:.,.:.",
",.,.,.;.,.,.,.k.k.,.,.,.,.,.,.k.,.,.,.;.,.,.,.n.,.k.,.,.,.,.,.k.,.,.9.,.,.,.,.,.k.;.z.,.,.,.,.,.k.,.,.,.k.,.,.,.n.;.,.,.j.,.:.:.",
",.k.,.n.k.,.,.,.;.,.,.k.,.,.,.,.,.k.,.k.k.,.,.;.,.,.z.;.k.,.,.,.,.,.,.,.,.,.,.,.,.,.,.,.,.,.,.,.k.k.,.,.,.,.,.,.,.,.,.k.1.,.:.,.",
",.,.,.,.,.,.,.,.n.,.,.,.;.,.,.,.,.,.,.k.,.,.,.k.,.k.,.,.,.,.,.,.,.,.,.,.,.,.,.,.,.,.,.,.,.,.k.k.:.,.>.>.,.,.,.,.k.,.,.:.;.k.c.k.",
",.,.,.k.,.,.k.,.,.,.,.,.z.,.k.,.,.,.,.,.,.,.,.,.,.,.,.,.k.,.,.,.,.k.,.,.,.,.,.,.,.k.,.,.,.k.c.k.:.<.z z k.,.,.,.,.,.1.3.3.k.c.j."
};
