/* XPM */
static char *result[] = {
/* columns rows colors chars-per-pixel */
"64 64 216 2 ",
"   c #1D031B",
".  c #25051A",
"X  c #0C0525",
"o  c #010435",
"O  c #16183D",
"+  c #320A2A",
"@  c #312138",
"#  c #6C3B1F",
"$  c #431A39",
"%  c #521429",
"&  c #671A27",
"*  c #523A2F",
"=  c #6A2B35",
"-  c #574A3B",
";  c #4C443D",
":  c #010644",
">  c #01084F",
",  c #040952",
"<  c #111051",
"1  c #341349",
"2  c #370D55",
"3  c #221F50",
"4  c #392846",
"5  c #36235B",
"6  c #010A63",
"7  c #0C1163",
"8  c #010D78",
"9  c #071574",
"0  c #1D1476",
"q  c #2C1265",
"w  c #26266C",
"e  c #2B2E70",
"r  c #431959",
"t  c #4C1446",
"y  c #54314E",
"u  c #643B4B",
"i  c #3C4479",
"p  c #6E5552",
"a  c #76675D",
"s  c #5B4C64",
"d  c #8F1813",
"f  c #9F2919",
"g  c #BD260D",
"h  c #A73213",
"j  c #83222C",
"k  c #DB1D06",
"l  c #D31A07",
"z  c #E41C04",
"x  c #C9270B",
"c  c #DB2C09",
"v  c #D72809",
"b  c #D4330C",
"n  c #DA330A",
"m  c #D43B0C",
"M  c #DB3C0A",
"N  c #DD3407",
"B  c #C5370E",
"V  c #E42305",
"C  c #E42D07",
"Z  c #E63A07",
"A  c #89591A",
"S  c #BE5312",
"D  c #A86E1F",
"F  c #974D33",
"G  c #A6723B",
"H  c #C9460D",
"J  c #DD4509",
"K  c #DC4C0A",
"L  c #DA560A",
"P  c #D64410",
"I  c #EB4404",
"U  c #EC4B05",
"Y  c #E54908",
"T  c #ED5B05",
"R  c #E45409",
"E  c #E45C09",
"W  c #EA5807",
"Q  c #DD640B",
"!  c #DC6D0B",
"~  c #D76F0E",
"^  c #C87319",
"/  c #DC7912",
"(  c #D46111",
")  c #ED6205",
"_  c #E46409",
"`  c #E26C0B",
"'  c #EC6908",
"]  c #F06C05",
"[  c #ED7406",
"{  c #E4740B",
"}  c #EC7309",
"|  c #E47C0A",
" . c #EB7C07",
".. c #F07806",
"X. c #D7422C",
"o. c #85675F",
"O. c #E35A4E",
"+. c #DB9618",
"@. c #D58611",
"#. c #ED8506",
"$. c #E4820B",
"%. c #EC8508",
"&. c #E98A0A",
"*. c #E78B09",
"=. c #F28505",
"-. c #F18B04",
";. c #EF9505",
":. c #EA960B",
">. c #F29304",
",. c #F49D01",
"<. c #E68913",
"1. c #E29413",
"2. c #F4A202",
"3. c #EEA214",
"4. c #EBA917",
"5. c #F2AC13",
"6. c #F4B31B",
"7. c #F6B815",
"8. c #ECA20E",
"9. c #C98E24",
"0. c #DBA82A",
"q. c #DEB029",
"w. c #E6A822",
"e. c #EBB62A",
"r. c #F4BB23",
"t. c #F2B824",
"y. c #E6BE32",
"u. c #F7C729",
"i. c #FBD125",
"p. c #FAD538",
"a. c #F4CA36",
"s. c #A18F54",
"d. c #A8846E",
"f. c #D7A05D",
"g. c #D9A865",
"h. c #E7B77D",
"j. c #E0A864",
"k. c #000F85",
"l. c #03138A",
"z. c #141687",
"x. c #0A1A95",
"c. c #0A219E",
"v. c #262A86",
"b. c #2B3085",
"n. c #393A9C",
"m. c #102BAC",
"M. c #2034AB",
"N. c #2946BC",
"B. c #4E4E83",
"V. c #7D7382",
"C. c #525FB4",
"Z. c #1635C0",
"A. c #2147CF",
"S. c #445BC5",
"D. c #86778A",
"F. c #A6918A",
"G. c #B3A69A",
"H. c #979BA5",
"J. c #AA9CAD",
"K. c #9DA7AD",
"L. c #A7A4A6",
"P. c #A8A1BB",
"I. c #DBB585",
"U. c #C7B398",
"Y. c #DBB695",
"T. c #E0BE96",
"R. c #C3BBB4",
"E. c #C8BAAB",
"W. c #E8C397",
"Q. c #F3CB9A",
"!. c #F2C991",
"~. c #F3CC93",
"^. c #DEC4B3",
"/. c #E6C7A5",
"(. c #F5CEA2",
"). c #F6D2AA",
"_. c #E1CAB8",
"`. c #F3D5B8",
"'. c #9C9FC8",
"]. c #B5BACC",
"[. c #A8B9DD",
"{. c #A6B1C8",
"}. c #A7BBE7",
"|. c #C6BBCA",
" X c #BBC7D8",
".X c #BAC4CF",
"XX c #BDCCE4",
"oX c #B1C2E8",
"OX c #ABC0EB",
"+X c #C8C8C8",
"@X c #D5C7C6",
"#X c #CBD4DD",
"$X c #C6D0DC",
"%X c #D8D6D8",
"&X c #D1D1D6",
"*X c #E8D5C8",
"=X c #F4DBC8",
"-X c #E4D6D3",
";X c #EADDD9",
":X c #E7CFC0",
">X c #F5E4DC",
",X c #C2CFE5",
"<X c #CBD6E3",
"1X c #C8D4E6",
"2X c #D2DBE4",
"3X c #D2DDEB",
"4X c #CDDAF2",
"5X c #DAE3EC",
"6X c #D5E1ED",
"7X c #DAE4F2",
"8X c #E7E5E6",
"9X c #F3E6E4",
"0X c #E1EAF3",
"qX c #ECF2F8",
"wX c #F6F0F2",
"eX c None",
/* pixels */
"eXeXeXeXeXeXeXeXeXeXeXeXeXeXeXeXeXeXeXeXeXeXeXeXeXeXeXeXeXeXeXeXeXeXeXeXeXeXeXeXeXeXeXeXeXeXeXeXeXeXeXeXeXeXeXeXeXeXeXeXeXeXeXeX",
"eXeXeXeXeXeXeXeXeXeXeXeXeXeXeXeXeXeXeXeXeXeXeXeXeXeXeXeXeXeXeXeXeXeXeXeXeXeXeXeXeXeXeXeXeXeXeXeXeXeXeXeXeXeXeXeXeXeXeXeXeXeXeXeX",
"eXeXeXeXeXeXeXeXeXeXeXeXeXeXeXeXeXeXeXeXeXeXeXeXeXXX<XeXeXeXeXXXeXeXeXeXeXeXeXeXeXeXeXeXeXeXeXeXeXeXeXeXeXeXeXeXeXeXeXeXeXeXeXeX",
"eXeXeXeXeXeXeXeXeXeXeXeXeXeXeXeXeXeXeXeXeXeXeXeXeXeX,X5X0XeXeX,XqXeX3XeXeXeXeXeXeXeXeXeXeXeXeXeXeXeXeXeXeXeXeXeXeXeXeXeXeXeXeXeX",
"eXeXeXeXeXeXeXeXeXeXeXeXeXeXeXeXeXeXeXeXeXeXeXeXeXeX}.4X0X5X#X<XqX<X5XeXeXeXeXeXeXeXeXeXeXeXeXeXeXeXeXeXeXeXeXeXeXeXeXeXeXeXeXeX",
"eXeXeXeXeXeXeXeXeXeXeXeXeXeXeXeXeXeXeXeXeXeXeXeXeXeX}.}.7X0X.X2XqX6X5XeXeXeXeXeXeXeXeXeXeXeXeXeXeXeXeXeXeXeXeXeXeXeXeXeXeXeXeXeX",
"eXeXeXeXeXeXeXeXeXeXeXeXeXeXeXeXeXeXeXeXeXeXeXeXeXeXeX}.OX4X1X8X0X2X2X7XeXeXeXeXeXeXeXeXeXeXeXeXeXeXeXeXeXeXeXeXeXeXeXeXeXeXeXeX",
"eXeXeXeXeXeXeXeXeXeXeXeXeXeXeXeXeXeXeXeXeXeXeXeXeX1X6X3XXX[.XXqX2X#X5X5X XeXeXeXeXeXeXeXeXeXeXeXeXeXeXeXeXeXeXeXeXeXeXeXeXeXeXeX",
"eXeXeXeXeXeXeXeXeXeXeXeXeXeXeXeXeXeXeXeXeXeXeXeXeXeXoX4X5X,X.X$X.X1X$X<X,X#X2XeXeXeXeXeXeXeXeXeXeXeXeXeXeXeXeXeXeXeXeXeXeXeXeXeX",
"eXeXeXeXeXeXeXeXeXeXeXeXeXeXeXeXeXeXeXeXeXeXeXeXeXeXeXOX[.1XU.U.G.<X@X#X X1XeXeXeXeXeXeXeXeXeXeXeXeXeXeXeXeXeXeXeXeXeXeXeXeXeXeX",
"eXeXeXeXeXeXeXeXeXeXeXeXeXeXeXeXeXeXeXeXeXeXeXeXeXeXeX X{.L.I./.+X.XE.G..XeXeXeXeXeXeXeXeXeXeXeXeXeXeXeXeXeXeXeXeXeXeXeXeXeXeXeX",
"eXeXeXeXeXeXeXeXeXeXeXeXeXeXeXeXeXeXeXeXeXeXeXeXeXeXeXeXH.F.U.E.^.^.R.L.K.eXeXeXeXeXeXeXeXeXeXeXeXeXeXeXeXeXeXeXeXeXeXeXeXeXeXeX",
"eXeXeXeXeXeXeXeXeXeXeXeXeXeXeXeXeXeXeXeXeXeXeXeXeXeXeXeXeXH./.-X_.:X+XeXeXeXeXeXeXeXeXeXeXeXeXeXeXeXeXeXeXeXeXeXeXeXeXeXeXeXeXeX",
"eXeXeXeXeXeXeXeXeXeXeXeXeXeXeXeXeXeXeXeXeXeXeXeXeXeXeXeXeXeXW.*X*X%XeXeXeXeXeXeXeXeXeXeXeXeXeXeXeXeXeXeXeXeXeXeXeXeXeXeXeXeXeXeX",
"eXeXeXeXeXeXeXeXeXeXeXeXeXeXeXeXeXeXeXeXeXeXeXeXeXeXeXeXeX!.W.:X-X;X*XeXeXeXeXeXeXeXeXeXeXeXeXeXeXeXeXeXeXeXeXeXeXeXeXeXeXeXeXeX",
"eXeXeXeXeXeXeXeXeXeXeXeXeXeXeXeXeXeXeXeXeXeXeXeXeX&.~ ^ o.!././._.*X=XK.G Q / eXeXeXeXeXeXeXeXeXeXeXeXeXeXeXeXeXeXeXeXeXeXeXeXeX",
"eXeXeXeXeXeXeXeXeXeXeXeXeXeXeXeXeXeXeXeXeXeXeXeXeX#.` ~ y d.h.Y._.&X].C.G &.6.q.eXeXeXeXeXeXeXeXeXeXeXeXeXeXeXeXeXeXeXeXeXeXeXeX",
"eXeXeXeXeXeXeXeXeXeXeXeXeXeXeXeXeXeXeXeXeXeXeXeX$ C Z } * 7 w e v.v.M.N.9.:.7.s.eXeXeXeXeXeXeXeXeXeXeXeXeXeXeXeXeXeXeXeXeXeXeXeX",
"eXeXeXeXeXeXeXeXeXeXeXeXeXeXeXeXeXeXeXeXeXeXeXeX5 c z ] A : 6 k.l.l.x.B.1.6.5.a N.eXeXeXeXeXeXeXeXeXeXeXeXeXeXeXeXeXeXeXeXeXeXeX",
"eXeXeXeXeXeXeXeXeXeXeXeXeXeXeXeXeXeXeXeXeXeXeXeXD.F v I @.# 7 k.8 k.4 @.6.a.9.V.].eXeXeXeXeXeXeXeXeXeXeXeXeXeXeXeXeXeXeXeXeXeXeX",
"eXeXeXeXeXeXeXeXeXeXeXeXeXeXeXeXeXeXeXeXeXeXeXeX/.@XX.U >._ F w 7 - +.r.r.a.g.*X*XeXeXeXeXeXeXeXeXeXeXeXeXeXeXeXeXeXeXeXeXeXeXeX",
"eXeXeXeXeXeXeXeXeXeXeXeXeXeXeXeXeXeXeXeXeXeXeXf.`.wXO.I ;.=._ ^ D :.u.p.p.p.Q.9X%XeXeXeXeXeXeXeXeXeXeXeXeXeXeXeXeXeXeXeXeXeXeXeX",
"eXeXeXeXeXeXeXeXeXeXeXeXeXeXeXeXeXeXeXeXeXeXeXg.=X>XeXI #. .,.,.2.3.u.r.i.p.Q.>X-XeXeXeXeXeXeXeXeXeXeXeXeXeXeXeXeXeXeXeXeXeXeXeX",
"eXeXeXeXeXeXeXeXeXeXeXeXeXeXeXeXeXeXeXeXeXeXeXj.`.).eXP _ L T -.` ` <.;.w.eXeX=X-XeXeXeXeXeXeXeXeXeXeXeXeXeXeXeXeXeXeXeXeXeXeXeX",
"eXeXeXeXeXeXeXeXeXeXeXeXeXeXeXeXeXeXeXeXeXeXeXh.W.eXeXeX% = = j & & u s eXeXeXW.*XeXeXeXeXeXeXeXeXeXeXeXeXeXeXeXeXeXeXeXeXeXeXeX",
"eXeXeXeXeXeXeXeXeXeXeXeXeXeXeXeXeXeXeXeXeXeXeXQ.;XeXeXeXo 8 8 , o 6 k.c.eXeXeXh.*X>XeXeXeXeXeXeXeXeXeXeXeXeXeXeXeXeXeXeXeXeXeXeX",
"eXeXeXeXeXeXeXeXeXeXeXeXeXeXeXeXeXeXeXeXeXeXeX).9XeXeXeX& u t $ $ y y p eXeXeX(.>X9XeXeXeXeXeXeXeXeXeXeXeXeXeXeXeXeXeXeXeXeXeXeX",
"eXeXeXeXeXeXeXeXeXeXeXeXeXeXeXeXeXeXeXeXeXeXeX(.9XeXeXeXL { { H L / *.1.u.eXeXeX>X;XeXeXeXeXeXeXeXeXeXeXeXeXeXeXeXeXeXeXeXeXeXeX",
"eXeXeXeXeXeXeXeXeXeXeXeXeXeXeXeXeXeXeXeXeXeXeXF.eXeXeXE ` _ &.H L ;.;.| 4.eXeXeXJ.'.eXeXeXeXeXeXeXeXeXeXeXeXeXeXeXeXeXeXeXeXeXeX",
"eXeXeXeXeXeXeXeXeXeXeXeXeXeXeXeXeXeXeXeXeXeXo 9 eXeXeXZ W %.;.g L 2.-.' 7.eXeXeXl.A.eXeXeXeXeXeXeXeXeXeXeXeXeXeXeXeXeXeXeXeXeXeX",
"eXeXeXeXeXeXeXeXeXeXeXeXeXeXeXeXeXeXeXeXeXeX@ e eXeXeXz W 2.-.x J ,.>.) 7.eXeXeXb.S.eXeXeXeXeXeXeXeXeXeXeXeXeXeXeXeXeXeXeXeXeXeX",
"eXeXeXeXeXeXeXeXeXeXeXeXeXeXeXeXeXeXeXeXeXeXI._.eXeXeXz ) 2. .x l ..,.>.7.eXeXeX^.-XeXeXeXeXeXeXeXeXeXeXeXeXeXeXeXeXeXeXeXeXeXeX",
"eXeXeXeXeXeXeXeXeXeXeXeXeXeXeXeXeXeXeXeXeXeXQ.*X9XeXeXk T [ R b l T 2.2.r.q.eXeX=X;XeXeXeXeXeXeXeXeXeXeXeXeXeXeXeXeXeXeXeXeXeXeX",
"eXeXeXeXeXeXeXeXeXeXeXeXeXeXeXeXeXeXeXeXeXeXI.Y.:XeXm Z ' ] z x l Z ,.5.6.w.eXeXY.*XeXeXeXeXeXeXeXeXeXeXeXeXeXeXeXeXeXeXeXeXeXeX",
"eXeXeXeXeXeXeXeXeXeXeXeXeXeXeXeXeXeXeXeXeXeXeXeXeXeXv U >.,.U k g M >.2.2.5.eXeXeXeXeXeXeXeXeXeXeXeXeXeXeXeXeXeXeXeXeXeXeXeXeXeX",
"eXeXeXeXeXeXeXeXeXeXeXeXeXeXeXeXeXeXeXeXeXeXeXeXeXeXz T 2.2.[ l B K >.2.,.5.eXeXeXeXeXeXeXeXeXeXeXeXeXeXeXeXeXeXeXeXeXeXeXeXeXeX",
"eXeXeXeXeXeXeXeXeXeXeXeXeXeXeXeXeXeXeXeXeXeXeXeXeXeXk ] 2.2.Y c L R >.,.,.6.y.eXeXeXeXeXeXeXeXeXeXeXeXeXeXeXeXeXeXeXeXeXeXeXeXeX",
"eXeXeXeXeXeXeXeXeXeXeXeXeXeXeXeXeXeXeXeXeXeXeXeXeXeXk [ 2.-.K #.{  .#.2.,.6.e.eXeXeXeXeXeXeXeXeXeXeXeXeXeXeXeXeXeXeXeXeXeXeXeXeX",
"eXeXeXeXeXeXeXeXeXeXeXeXeXeXeXeXeXeXeXeXeXeXeXeXeXv V ] 2.-. .2.eX..>.2.2.4.w.eXeXeXeXeXeXeXeXeXeXeXeXeXeXeXeXeXeXeXeXeXeXeXeXeX",
"eXeXeXeXeXeXeXeXeXeXeXeXeXeXeXeXeXeXeXeXeXeXeXeXeXv I T 2.,.,.eXeXZ >.2.,.,.w.eXeXeXeXeXeXeXeXeXeXeXeXeXeXeXeXeXeXeXeXeXeXeXeXeX",
"eXeXeXeXeXeXeXeXeXeXeXeXeXeXeXeXeXeXeXeXeXeXeXeXeXv ] Z T -.1.eXeXv T 2.2...e.9.eXeXeXeXeXeXeXeXeXeXeXeXeXeXeXeXeXeXeXeXeXeXeXeX",
"eXeXeXeXeXeXeXeXeXeXeXeXeXeXeXeXeXeXeXeXeXeXeXeXx v -.U T | / eXeXx n ;.=.' e.w.eXeXeXeXeXeXeXeXeXeXeXeXeXeXeXeXeXeXeXeXeXeXeXeX",
"eXeXeXeXeXeXeXeXeXeXeXeXeXeXeXeXeXeXeXeXeXeXeXeXc m =.>.{ ) 1.eXeXm Y ` U ..e.+.eXeXeXeXeXeXeXeXeXeXeXeXeXeXeXeXeXeXeXeXeXeXeXeX",
"eXeXeXeXeXeXeXeXeXeXeXeXeXeXeXeXeXeXeXeXeXeXeXeXY ( %.>._ [ 1.eXeXn R %.%...~ @.i.eXeXeXeXeXeXeXeXeXeXeXeXeXeXeXeXeXeXeXeXeXeXeX",
"eXeXeXeXeXeXeXeXeXeXeXeXeXeXeXeXeXeXeXeXeXeXeXV ) Q &.`  .{ 1.eXeXeXC } { E Y <.i.eXeXeXeXeXeXeXeXeXeXeXeXeXeXeXeXeXeXeXeXeXeXeX",
"eXeXeXeXeXeXeXeXeXeXeXeXeXeXeXeXeXeXeXeXeXeXeXV [ K Z ..-./ eXeXeXeXb R #.W Z 3.u.eXeXeXeXeXeXeXeXeXeXeXeXeXeXeXeXeXeXeXeXeXeXeX",
"eXeXeXeXeXeXeXeXeXeXeXeXeXeXeXeXeXeXeXeXeXeXeXz ' R W ;.<.1.eXeXeXeXm / ;...L 6.r.eXeXeXeXeXeXeXeXeXeXeXeXeXeXeXeXeXeXeXeXeXeXeX",
"eXeXeXeXeXeXeXeXeXeXeXeXeXeXeXeXeXeXeXeXeXeXeXk U _ _ W %.1.6.eXeXeXY <.$.Y _ r.w.eXeXeXeXeXeXeXeXeXeXeXeXeXeXeXeXeXeXeXeXeXeXeX",
"eXeXeXeXeXeXeXeXeXeXeXeXeXeXeXeXeXeXeXeXeXeXeXv Y E k I | 3.eXeXeXeXC } { M ` t.+.e.eXeXeXeXeXeXeXeXeXeXeXeXeXeXeXeXeXeXeXeXeXeX",
"eXeXeXeXeXeXeXeXeXeXeXeXeXeXeXeXeXeXeXeXeXeXV J ` ' l J { e.eXeXeXeXC W Q L ..,.@.t.eXeXeXeXeXeXeXeXeXeXeXeXeXeXeXeXeXeXeXeXeXeX",
"eXeXeXeXeXeXeXeXeXeXeXeXeXeXeXeXeXeXeXeXeXeXeXW { %.Z c ` <.eXeXeXeXm C Q Y Z ` 3.u.eXeXeXeXeXeXeXeXeXeXeXeXeXeXeXeXeXeXeXeXeXeX",
"eXeXeXeXeXeXeXeXeXeXeXeXeXeXeXeXeXeXeXeXeXeXeXC E ! n k Z eXeXeXeXeXeXn M v n } t.eXeXeXeXeXeXeXeXeXeXeXeXeXeXeXeXeXeXeXeXeXeXeX",
"eXeXeXeXeXeXeXeXeXeXeXeXeXeXeXeXeXeXeXeXeXeXeX+ d H H f eXeXeXeXeXeXeXeXd h x h u eXeXeXeXeXeXeXeXeXeXeXeXeXeXeXeXeXeXeXeXeXeXeX",
"eXeXeXeXeXeXeXeXeXeXeXeXeXeXeXeXeXeXeXeXeXeXeX: 2 2 z.eXeXeXeXeXeXeXeXeXeX< q t x.eXeXeXeXeXeXeXeXeXeXeXeXeXeXeXeXeXeXeXeXeXeXeX",
"eXeXeXeXeXeXeXeXeXeXeXeXeXeXeXeXeXeXeXeXeXeXeX> 2 z.c.eXeXeXeXeXeXeXeXeXeX: l.2 x.eXeXeXeXeXeXeXeXeXeXeXeXeXeXeXeXeXeXeXeXeXeXeX",
"eXeXeXeXeXeXeXeXeXeXeXeXeXeXeXeXeXeXeXeXeXeXeX, 2 x.Z.eXeXeXeXeXeXeXeXeXeXeX8 q z.eXeXeXeXeXeXeXeXeXeXeXeXeXeXeXeXeXeXeXeXeXeXeX",
"eXeXeXeXeXeXeXeXeXeXeXeXeXeXeXeXeXeXeXeXeXeXeX; @ e eXeXeXeXeXeXeXeXeXeXeXeX< @ s eXeXeXeXeXeXeXeXeXeXeXeXeXeXeXeXeXeXeXeXeXeXeX",
"eXeXeXeXeXeXeXeXeXeXeXeXeXeXeXeXeXeXeXeXeXeXeX* - i eXeXeXeXeXeXeXeXeXeXeXeXeX- p eXeXeXeXeXeXeXeXeXeXeXeXeXeXeXeXeXeXeXeXeXeXeX",
"eXeXeXeXeXeXeXeXeXeXeXeXeXeXeXeXeXeXeXeXeXeXX . 3 eXeXeXeXeXeXeXeXeXeXeXeXeXeX< 2 v.eXeXeXeXeXeXeXeXeXeXeXeXeXeXeXeXeXeXeXeXeXeX",
"eXeXeXeXeXeXeXeXeXeXeXeXeXeXeXeXeXeXeXeXeXeX    9 eXeXeXeXeXeXeXeXeXeXeXeXeXeX: 0 r eXeXeXeXeXeXeXeXeXeXeXeXeXeXeXeXeXeXeXeXeXeX",
"eXeXeXeXeXeXeXeXeXeXeXeXeXeXeXeXeXeXeXeXeXeX+ 7 M.eXeXeXeXeXeXeXeXeXeXeXeXeXeXo 6 r n.eXeXeXeXeXeXeXeXeXeXeXeXeXeXeXeXeXeXeXeXeX",
"eXeXeXeXeXeXeXeXeXeXeXeXeXeXeXeXeXeXeXeXeXeX5 B.eXeXeXeXeXeXeXeXeXeXeXeXeXeXeXeXX + 1 eXeXeXeXeXeXeXeXeXeXeXeXeXeXeXeXeXeXeXeXeX",
"eXeXeXeXeXeXeXeXeXeXeXeXeXeXeXeXeXeXeXeXeXeXeXeXeXeXeXeXeXeXeXeXeXeXeXeXeXeXeXeXeXeXeXeXeXeXeXeXeXeXeXeXeXeXeXeXeXeXeXeXeXeXeXeX",
"eXeXeXeXeXeXeXeXeXeXeXeXeXeXeXeXeXeXeXeXeXeXeXeXeXeXeXeXeXeXeXeXeXeXeXeXeXeXeXeXeXeXeXeXeXeXeXeXeXeXeXeXeXeXeXeXeXeXeXeXeXeXeXeX"
};
