/* XPM */
static char *d0daa6c8e3074352834431798390b999A5W09uUWbf2YzhMw[] = {
/* columns rows colors chars-per-pixel */
"64 64 256 2 ",
"   c #3F3F37",
".  c #39493E",
"X  c #494939",
"o  c #574C39",
"O  c #5C533A",
"+  c #5D562D",
"@  c #76582D",
"#  c #64553C",
"$  c #6B5637",
"%  c #745A37",
"&  c #644F2E",
"*  c #7A653A",
"=  c #6D6632",
"-  c #3E3B4E",
";  c #3B4649",
":  c #3A4556",
">  c #394D56",
",  c #3B4B67",
"<  c #454C4B",
"1  c #494948",
"2  c #564D46",
"3  c #4C534A",
"4  c #545345",
"5  c #53544D",
"6  c #5B5C4C",
"7  c #5A5747",
"8  c #4C4D53",
"9  c #454A56",
"0  c #4A5457",
"q  c #5D5B53",
"w  c #565756",
"e  c #584E58",
"r  c #625B44",
"t  c #6B5C44",
"y  c #675847",
"u  c #615C53",
"i  c #655856",
"p  c #6C5644",
"a  c #5D6459",
"s  c #6C624C",
"d  c #6A6447",
"f  c #7C6542",
"g  c #73644C",
"h  c #7C6C4C",
"j  c #756747",
"k  c #666152",
"l  c #6C6453",
"z  c #62625A",
"x  c #6B6959",
"c  c #756B53",
"v  c #796A56",
"b  c #7C7253",
"n  c #76725B",
"m  c #7C735B",
"M  c #797658",
"N  c #787350",
"B  c #435468",
"V  c #525163",
"C  c #5B6365",
"Z  c #586576",
"A  c #686763",
"S  c #746B65",
"D  c #7D7963",
"F  c #787667",
"G  c #6B6F6F",
"H  c #855A27",
"J  c #805E37",
"K  c #905F27",
"L  c #8A632B",
"P  c #8D6D3E",
"I  c #846639",
"U  c #936C39",
"Y  c #98733A",
"T  c #8E6E37",
"R  c #846B4B",
"E  c #866A44",
"W  c #956F42",
"Q  c #8B7243",
"!  c #8B724B",
"~  c #877349",
"^  c #947B4C",
"/  c #997946",
"(  c #826D55",
")  c #847352",
"_  c #8B7B54",
"`  c #86765B",
"'  c #8C7C5D",
"]  c #877858",
"[  c #937B53",
"{  c #997C57",
"}  c #A57C4C",
"|  c #877B66",
" . c #847B72",
".. c #957D61",
"X. c #9B8249",
"o. c #8A805A",
"O. c #978458",
"+. c #9A905E",
"@. c #A7854C",
"#. c #A48553",
"$. c #A48A5C",
"%. c #A88956",
"&. c #B28C55",
"*. c #AC925C",
"=. c #AB9354",
"-. c #B4955B",
";. c #B18B4C",
":. c #8C8463",
">. c #878169",
",. c #948464",
"<. c #998968",
"1. c #888578",
"2. c #938A77",
"3. c #999479",
"4. c #929275",
"5. c #A78C64",
"6. c #AC9263",
"7. c #AD946A",
"8. c #A89769",
"9. c #B39463",
"0. c #B39B65",
"q. c #BB9C65",
"w. c #B49B6B",
"e. c #BB9D6C",
"r. c #B79769",
"t. c #A39374",
"y. c #A89878",
"u. c #B79C74",
"i. c #B98E61",
"p. c #BCA26E",
"a. c #BAA469",
"s. c #A9A27B",
"d. c #BDA473",
"f. c #BEA975",
"g. c #BDA57A",
"h. c #BDAA7C",
"j. c #B3A378",
"k. c #B8AD78",
"l. c #BDA25F",
"z. c #C39E6B",
"x. c #C39C71",
"c. c #C2A36D",
"v. c #C3AA6D",
"b. c #C8A569",
"n. c #C3A574",
"m. c #C4AA75",
"M. c #CAAC75",
"N. c #C3A679",
"B. c #C3AB7B",
"V. c #CAAC7C",
"C. c #CAA57B",
"Z. c #D2AC7A",
"A. c #C4B27C",
"S. c #CAB27D",
"D. c #CBB578",
"F. c #D2B77D",
"G. c #C8B16D",
"H. c #C19954",
"J. c #9B9685",
"K. c #8F8C81",
"L. c #A79A86",
"P. c #B59C86",
"I. c #ABA389",
"U. c #B5A888",
"Y. c #AAA791",
"T. c #BCAC92",
"R. c #B4AB96",
"E. c #BEB294",
"W. c #BBB299",
"Q. c #BCB287",
"!. c #A5AE9D",
"~. c #C3AC82",
"^. c #CBAD83",
"/. c #C3AA89",
"(. c #C5B283",
"). c #CBB484",
"_. c #C3B38B",
"`. c #CCB58B",
"'. c #CDBB8D",
"]. c #CCBA87",
"[. c #D3B585",
"{. c #D4BA85",
"}. c #D3B58B",
"|. c #D3BC8D",
" X c #DBBB89",
".X c #C6AF94",
"XX c #C3B392",
"oX c #CBB692",
"OX c #CDBC93",
"+X c #CCBC9B",
"@X c #C3B899",
"#X c #D3BD93",
"$X c #DABE95",
"%X c #D4BE9B",
"&X c #D9BE9B",
"*X c #D3B694",
"=X c #D1AE80",
"-X c #C9BAA1",
";X c #D7BDA2",
":X c #CFBFB2",
">X c #CEC28C",
",X c #D4C18D",
"<X c #D8C48C",
"1X c #CEC195",
"2X c #CDC29C",
"3X c #C5C29A",
"4X c #D5C295",
"5X c #DAC395",
"6X c #DDCA95",
"7X c #D5C49B",
"8X c #DAC49B",
"9X c #D6C99D",
"0X c #DCCA9D",
"qX c #D6C994",
"wX c #DDD099",
"eX c #E1C295",
"rX c #E1C59C",
"tX c #E2CB9C",
"yX c #E5CC98",
"uX c #E5D29D",
"iX c #CCC4A7",
"pX c #D5C4A2",
"aX c #DBC5A2",
"sX c #D6C9A3",
"dX c #DCCBA3",
"fX c #D4C4A9",
"gX c #DBC5AB",
"hX c #DDCCAA",
"jX c #D7CCAC",
"kX c #DED1A3",
"lX c #DDD2AB",
"zX c #D6D1A5",
"xX c #DCCCB4",
"cX c #DBD4B4",
"vX c #E1C5A2",
"bX c #E2CCA3",
"nX c #E2CDAB",
"mX c #EACDAB",
"MX c #E6C9A7",
"NX c #E4D2A5",
"BX c #EAD3A5",
"VX c #E3D2AC",
"CX c #EAD4AC",
"ZX c #EBDAAC",
"AX c #E4D9AA",
"SX c #F2D8AC",
"DX c #E4CDB2",
"FX c #E8CCB4",
"GX c #E5D3B2",
"HX c #EBD4B4",
"JX c #EBDAB4",
"KX c #E8D9BA",
"LX c #F3D9B7",
"PX c #F1CFA8",
"IX c #EFE1BD",
"UX c #F3E5C4",
/* pixels */
"h.7X9X#XrX5X0X4XpX8X8X8X%X5X#XBXt.<. XtXNXhXhX#X1XB.y U.nX0X9XMXDXpXDXnXlX^.q.' +XT.7XhXdXaXaXdX4X(.v 0.4X3XeX<XkX#X|.4XvXaX*X$.",
"~.N.dXdX#X#X#XbX4X4X8X8X8X%X8XbX| ..c.`.dXnXpXrXaXe.| zXaX4X9X4X4XdXnXdXdX).q.' 7XkX0X7X0X0X4X0XDX8X' V.1X1X$XjX0Xg.q.n.).6X<XX.",
"n.d.(.8XaXvX8X4XrX5X8X7X7X4X4X[.c ` c.~.(.vX0XeX,X9._ 0XaXvXdXaX0X9X0X0XdXbX Xv _.0XaXaX7XhXnXaXfX,X) $X#X4XrXxXV.p.n.p.0.p.n.X.",
"n.S.d.(.#X&X8X8X$X4X4X8X9X4X[.9.g b b.V.d.$XaX5X,X8.) qXFXFX0X0X8X5XaXdX+XrXrXm j.dX%X0XdX0X`.`.dX'.j +XaX4X$X'.M.n.p.N.B.B.e.{ ",
"e.m.m.m.d.h.(.}.4X4X7X5X'.B.n.;.t ) M.n.n.`.pX$X8X,.c wXDXVXNXdXVXsXpX7XlX0X5X| y.NX0X0X4XS.p.m.>X0Xl L.tX(.).a.e.d.N.d.N.n.u.{ ",
"O.B.M.m.m.f.f.v.OX4X#X).N.n.n.@.r c M.V.f.(.dX8X XD r tXDXdXKXcXhXhXDX0XpX#XqX>..XVX8X&X}.(.V.B.N.bXn D yX%X[.c.B.m.m.v.c.v.e.Q ",
"t u.^.c.m.N.B.B.B.[.).V.n.V.e.^ q z w.^.f.B.8X}.@.q r 4XLXbXnXHXHXZXLXCXVXmXuX:.5.).d.6.$./ / e.B.eXD q h.'.d.9.*.&.9.%.@.%._ d ",
"o j d.p.p.m.e.p.q.*.#.%.W I @ & ; < $ ! X.{ ^ Q $ : 0 7.u.@.@.;.7.d.^.^.g.7.%.c ^ Q @ @ J @ @ I 9.b.D 9 # j * P Y U U L I p 2 8 ",
"V 1 v $./ Q $ r y & & 2 o 4 C F 2.L.Y.U.E.T.I.y.2.1.F n r 6 i r j % % j h ) ) d 2 9 , > 0 e 1 3 l c x k n n n l y w o.+.' y.~.O.",
"4 Y.jXbXtX%XU.m : F iX:X@XOXsXBXVXkXnXkXkX0XdXVXBXBX8XlXU.; G !.aX9XaXdXaXhXVXhX1X>.6 3 2 ` <.O.X.#.6.p.B.).[.{.3.2 U.ZXhXnX}.+.",
"+.NX8XaXDXnXKXKXJ.] AXVXsXbXnX&X5X7X0X0X0X0XaX8X#XdX9XVXN.6 ~.JX0X4XdX0X4X4XaXdXMXJXXXg R M.V.V.N.n.B.5X8XtX8XrXnXF U.tX#X`.N._ ",
"B.0X&XnXhXsX0XkXHX_ ].0X8X0XfXpXaXsXaXfX8XaXdXnXhX7X0XnX&.i Z.eXOXOXOX#X#XOX#XOX%X+XGX,.[ V.V.^.B.h.).0X9X7X7X#XNXR.XXBX`.d.9.$ ",
"~.8X0XbXaXVXvXrXnX,.<.5XbX#XaX0XaX0XaXMXbX'.(.B.4X4X8XVX9.q 8.hXOXOX%X4X8X4X%X}.].OXaX~ $.`.p.a.n.S.0XbXbXdXNXdXtXT.+XBX_.B.#.$ ",
"B.8X4XdXnXdXnXHX0X] o.9X0X0XaXaX4X0X0X4X(.d.a.m.~.'.#XdX].k 6.0X|.#X4X9X8X4X%X8X,X8X8XQ *.C.B.M.`.8XCXnXhXjXDXgXBXE.pXtX7X).@.p ",
"w.5X0XaXNXhXhXnXtX( 8.AXaX0X0X4XaX4X`.B.S.).V.n.n.B.`.0XvXx <.|.OX4X4X7X7X4X0X8X;XdX}.T 6.*XaX;XdXbXnXdXdXdXnXdXbXI.@X8XnX#X=.p ",
"0.#XMXhXnXdX9X1XS.v y.8XaXaX0X'.B.B.N.r.9.*.r.n.B.B.Q.).bX] { S.|.7X7X7XpXaX7X4X2X6XS.E 7.0XqX9X%X8X8XdXnXVXvXmXnX' XXNXfXrXa.# ",
"<.Z.7XVXvXnX$X7XZ.n O.;.=.{ { P U K H L H K J K ^ e.p.=XF.:.^ F.%X4X9XOXdXOX0XvX7XpXn.* #.8XfX8X&X8X7X9XdXdXdX6XyXi R.MXsXpXB.+ ",
"_ c.~.pXNXaX8X7XM.z d #.O.Q ~ _ | :.:.n i r < 7 & R _ { [ x <.}.OXOX8XBX|.w.d.B.,XcXp.j * &.F.F.}.[.}.`.;XFXFXDXQ.; 3.0X2XnX*Xg ",
"b c.h.(.8X0X8XOXB.a 2.8X%XpXGXKXKXJXJXcXxXy.7 3.U.u.,.R ) F t.tXOX4X8XtXB.d.p.c.p.`.v.k X # ! X.=.l.a.-.V.PXVXdX .; L.SX,XtX X^ ",
"g c.B.d.}.nX4X4Xd.6 XXMXpXdXlXhXDXdXnXNX^.e.f q.4X6XkXNXuX1Xt.tX|.0X|.(.d.m.m.p.N.x.H.u Z F S | ` j j ^ _ X.8.,.4 ; 1.E.:.c D y ",
"s e.B.d.).0X}.8Xw.c dX8XaX0X7X4XhXkXNXdXu.q.R #.n.B.+XvX7X4X3.5X'.#X(.f.n.p.n.N.a.n.=.| fXNXmXjXNXW.i e K.I.j.(.@XiXiX;XW.R.L.x ",
"x n.V.m.B.8XtX5X<...rXrX8X5XdX8X4XrX&XdXMXN.r j z.B.B.8XdXnX>.(.7X'.h.e.n.n.n.n.f.V.=.<.dX|.{.>X<XnXR.c lXyXtXnXBXDXHXPXLXBXB.0.",
"z e.M.m.B.8XyXV.h ' 0XMX0X8XsX8XdX4X%XsXhX'.x o &.m.d.,XdXdXD s.tX}.m.e.c.z.c.q.e.-.! { 0X+X].1X{.%X~.s.0XvX8XaXsXsXsXaXsX1Xh.*.",
"3 ^ p.n.c.~.n.^ O | bXjXAXbXpXdX9XdXaX7X0X5Xc $ @.S./.vXsXNXK.g *.@./ } / Y / Y Y E 7  .eX&XF.OX*X0Xh.w.bX8XdX9X8X8X4XdXdXdXdXe.",
"9 4 # f P Q R ! i M BXcXVXGXtXdX9X8XnX9XsXrXb $ ;.A.6XaX0XNX4.- 2 7 j Q P P E f 6 0 > m n.S.@XeX4XeXy.u.CXkXnX0XaX4XaX0X0X8X9XQ.",
"x I.I.7.e.}.4X`...n vXlXkXVXDXVXDXyX#X8XdX5Xb $ r.1XdXpXaXNXF G R.R.W.+X;XfXfXiX_.P.v ) M.n.Q.*XE.5X<.y.CXlXcXdXvXdXaX0X8X8XrX(.",
":.AXMXVXbX4X'.m./ c MXHX0XVXVX9XxXhXkX9X1XuXF r e.pX0X8X0XdXm +XNXtX0XdXdXnXcXGX8X{.O.<.F.z.B.`.1X<X( t.SXhXnXHXNXNXhXsXsX0X8X).",
"y.vX4XhX|.h.B.q.b u 4XKXlXVXKXKXKXnXNX0X9XuXS $ =XsXrX0XdX+X` {.nXaX0XtX4X4X8X;XsX7X+.y.}.[.`.`.%X Xv :.JXcXlXGXVXHXlXhXhXdXbX5X",
"U.nXdX7Xf.h.n.Y 2 i <X>Xp.e.C.}.5XHXVXbX`.N.S * }.0X#X4XzXR.z qXGXcXlXdX0X0X0X0X8XnXs.t.8XOX#X,X'.{.d :.BX&X{. X&XnXAXKXGXdXOX^.",
"-XhXkX1Xd.m.n.L O 0 P * J E U L X.{ W / W P g @.{.ZXyX%XCX@X2 |.JXGXGXKXKXHXnX7XeXuXU.,.rX%XOX[.7X`.4 c O.! U U P ^ } %.#.X.^ W ",
"-XdXdXdX|.B.e.L 4 C | 2.L.J.' d 4 d n | D d < A <.:.' P.+XL.2 p.].h.d.h.`.8XvXnX7X|.3.| *X X[.m.m.d.w 0 8 0 0 0 m ` ` >.M | x X ",
"OXbX%XaXvX).h.T 2 I.BXAXHXAX(.e S 8XnXlXxX%XJ.z : ; < - 6 a Z M | ` ) ~ f j d # 4 $ o < g / @.{ o.$ > , 8 3 1 1.NXnXrXBXNXJX-X2.",
"U.bX5X0X8X0XV./ $ T.nX0X4XdXE.t (.vXaXaXdXNXCXdXx P.+XU.@X9XgXdXNXzXaXaXiX,Xx 0  . .J.J.L.T.#X~.J.K.A 3 0 0 8 2.nX[.4X_.OX'.4XaX",
"J.hX9XsX8X0X|.X.$ 2XnX7X5XnX1X] #X0XaXnXnXnXhXJXE.t.uXbXdX8X8X6XvX7X5XtXFXeXg 2.SXNXNXNXNXkXdXjXyXtXNX7X+XsXy.[ 8X#X5XdX9X#X4X`.",
"F nXaX7X5X8X0X%.O oXVXNXdX8X%X,.|.4XaXnXnXnX9XnX@X) 7XkXpXdXhX8X%XA.m.A.*XyX| h 0X0X8X8XdX0X9XdX0XpXaXdXfXVXL.b |.#X#X0X4X8XtXB.",
"e aX;XvXbXhXgX9.s W.UXGXVXGXjX<.|.8XdXhXdXdXnXHXh.,.8X|.`.^.g.9.%.%.-.k.N.yXI.~ aXtX4X).).$X$XrXsXsX4X0X0X|.) j ).%XdX0X#XaXbXw.",
"z zXAX0XM.>XkX-.! 5.u.u.V.|.w.^ S.8XaXnXdXdXVXJX(.g ( I R f f E v f t c O.5.F 5.VX}.(.B.d.B._.0X0XdXaX4X8X,Xl D 5X8X0XS.d.N.oX0.",
"0 s.4.c j x A v l 6 2 y 7 r X S S.0XaXNXhXdXdX%XQ.7 2.U.@X-XfXjXhXkXsXiX.X` - R.5X(.B.A.n.p.p.m.Z.*XeXMXmXbXS G 6X#X}.N.d.d.B.$.",
", 1 J.@X%X+X+XOX2XpX+X3X3X@X3.c B.rXdXhXdXbX0X}.*.v iXuXMXaXnXBXKXmXHXkX{.0.7 w.V.d.%.P @ L L U } / #.6.r.v.h q 8X|.m.c.m.c.n.*.",
"< | UX0XvXdX9XrX0X8XtXtXvXHXKX| *.B.8XGXdX7X#XtX*.1.cX,XvX9X9X7X9XMXDXsXq.8.w k ) ,.:.c q 5 1 w 4 4 3 4 i h 6 9 u.S.0.r.q.-.%.! ",
"9 R.kX4X%X&X%X4X7X1X8X4X1X0XyX| O.m.N.vXmXaX4X5X6.7.dX7X0X0X8X0X9X8XaXMX;Xt.y t.pXDXhXgXhXW.2.5 , ; ; 9 0 5 6 u s g f T T j 7 8 ",
"z cX4X4X8X0X4X8X8X8XvX8XpX&XbX>.O.v.n.`.8X4X4X$X$.8.nX0X0XaX7X0X9X0XaXdXNXe.D 8X%X0XBXnXdXZXUXR.X 1.E.+X2XOX#X*X+X%X#X#X_.Q.2.2 ",
"y.9X8X&X;X4X4XaX#X5XeX4X7X4XBX1.` M.M.N.5XdX8X}.5.5.VXnXVXnX9X0X0XaXaX4XNXV.:.<X8X8X0XdX0XvXSXU.q xXIXHXmXBXdXnXCXNXHXHXHXIXcX] ",
"d.f.{.vX0X5X5X&X7X0X%X X9X8X Xn ' M.N.d.|.0X4X$X] <.NXVXDXhXaXdX0X8XhX4X0X[.:.M.rXdXVXnXMX8XtXe.G cXpX#X7X0X4X;X4X'.7X+XaXdXZX<.",
"0.A.p.~.`.].'.4XOX7XaX5X`.^.9.t ' G.B./.'.dX<X}.c <.JXGXDXlXVXnXvX8XdX0XpX[.b p.#XaXGXjXpX4X#X5.J.KX4X5X8X5X5X%X8X0XaX4X4X8XVX<.",
") N.V.n.N.N.V.^.0X5X}.[.^.Z.@.j ` A.^.C.B.dX<XN.w o.NXnXhXVXnXhXNXbXfX7XaX&Xk 5.f.B.4XdX0X5X4XO.W.NX$X8X&X4X0XaX*X7X9X#XtX0XnX5.",
"2 _ m.m.n.p.e.q.7.5.5.#._ ~ $ X s 7.V.V.V.$XN.[ 8 ` NXnXGXAXAXHXlXHXnX9XsXvXk ,.S.f.m.5X5X4X`.O.2X7X5X7X0X4X5X%X0X8X7X4X8X0XhXt.",
", ; X r y r g g ) ' | | F S z Z q * Q Y X.^ ! % 9 m tX0XXX(.#XgXcXnXJXNXOX~.7 ,.M.V.d.$XrXvXXXt.GX4X8X4XpX4X5X&X8X&XaX0X%X#XhXj.",
"D L.2.1.3.T.-XiXdXNXVXNXVXVXdX9X%XQ.T.b 9 5 0 9 8 l O./ T Y Y } *.z.6.5.} ~ 1 g 9.h.n.C. Xv.^ y.#XtX4X4X4X4XaX%XaX5XqX4X;X#XbXU.",
"@XBXlXKXkXFXBX0XaX0X0X7X7X7X0XaXbXdXJX<.< 1 5 w 0 w k s v ) f = + # O t Q m A A R ] [ ' b s e I.B.|.0XaX7X#X0X0X*X8X5X0XaX%XbXy.",
"t.5XaX9X4XaX8X7XdX8X7XdXbXvXdXaXgX0X8X[ F -X+X2XOX2X1XpX;X-XoX_.L.A  .GX9XhXkXsXdX9XpXfXwXJ.: j.d.(.4XtXtX8X8X*X0X8X|.%XaX0X}._ ",
"g ).dXpXsXaXdXdXpXdXnXvX4X`.#XtXaX0X5X/ ,.nX%X`.%X$X#X#X4X7X7X4XPXy.y.ZX5X%X XrX,X5X0XdXwXiXi 7.S.m.B.`.*X4X4X0X&X8X8XaX*X[.0.E ",
"t a.rXvX0X7XrX4XsXdX5X`.B.p.h.`.4X9X9X#.b a.5X8X4X9XhXsXsXdX1XOX$XX.L.sX5XpX0X%X7X&X8X*XeXCX3.#.S.n.p.m.B.B.`.4X7X4X7X}.B.M.%.P ",
"6 h.vXpXdX9X0X0X0X|.(.N.B.B.f.d.`.+XcX~.N D.{.}.4X4X5X(.B.].#XMXeXQ 3.dX<X4XdX#XfXgX5X0X;X`.j.! m.B.B.m.B.d.m.(.0X'.).B.c.Z.#.I ",
"C OXNXaXsXaX|.OX(.V.B.n.n.v.B.S.c.S.dX`.n sX*XaXpX+X^.d.a.c.d.g.l.~ Q M.[.4X$XaX0X).D.D./.M.j.4 5.B.V.n.M.m.B.S.(.S.S.C.n.e._ l ",
"u 0.c.^.d.d.&.%.#./ U U U / #.-.V.d.OXOXk t.0X*XG.n.x.n.M.b.v.p.r.S $ } y.r.b.A.v.N.m.^.B.b.R > * 9.N.c.c.q.e.6.&.%./ W I @ # 5 ",
"r O.^ I @ @ J * H I % $ $ & & J &.-.&.8.x 1 n | _ Q P E h f j r 3 1 < 3 3 e u s s s l x k 5 < < 9 0 s f $ $ & r # # O 7 o 1 9 9 ",
"B w ,.L.W.E.(._.(._.OX@XU.U.y.` u e y x G a 3 ; : 9 F 1.1.|  .1.y.I.R.XX@X+X%X+X@X@XE.U.I.I.J.L. .8 < F R.@X_.XX+XpXaXjXW.2.q < ",
"> A KXUXKXCX0XAXJXdXJXGXlXKXUXpX6 x T.nXvXdX9XI.A 3 s.ZXMXuXHXMXCXvXbXvXdXdX0X0XVXMXmXbXBXNXNXJXD.7 | ZXNXdXnXbX4XbXaX8XJXKXiX<.",
"; 1.SX4X#X5XeX#X%X$X4X4X4X9XMXLXF U.bX8XmXFXhXHXJXK.d j.aX9X4X0X9X7X9XsX9X9X0XsX|.`.#X4X8X4X4XnX=.t | eX$XOX/.1X#XOX'.#X#X'.8X7X",
"; Y.VX4X%XaXaXfX%XvXrX#X0X8X&XmXO.Q.wX5XdXVXlXvXBXGXg 7.eXaXdXaX9XdXdX0X8X5X#X(.V.B.B.h.(.OX7XjX0Xn v 4X4X>X>XqX8X4X7X#X'.'.8XB.",
"0 iXaX4XsX4X4X7X7X4X8X%X4XdXdXnX#.(.aXaX0XdXdXMXFXOXl k.yX8X5XaX$X[.S.Z.m.c.q.i.-.q.x.c.m.V.^.`.BX<.l '.hXA.4XgXpXpX7X7X4X4XtXd.",
"z jX4X8X8X$X$X4XaX4X0X0X8X7X4X0XO.B.aXaXNXwXhXdXHXqXb m O.O.Q ~ * * * * % $ % % $ $ $ * ^ $.6.u.a.+.h n.;X{.5X%X8X7X9X4X8X4X0Xw.",
"3.VX$X8X%X8X8X8X4X$X4X%X8X8X4XbXt.w.8XMXbXjXDXaX4X).y S t.t.P.U.T.W.E.R.R.Y.F 1 B 0 0 a F 2.>.s V 3 c -.*X|.%X9X8X8X8X7X7X5X5X5."
};
